<?xml version="1.0" encoding="UTF-8"?>
<svg width="26px" height="26px" viewBox="0 0 26 26" version="1.1" xmlns="http://www.w3.org/2000/svg" xmlns:xlink="http://www.w3.org/1999/xlink">
    <!-- Generator: Sketch 42 (36781) - http://www.bohemiancoding.com/sketch -->
    <title>World Clock</title>
    <desc>Created with Sketch.</desc>
    <defs></defs>
    <g id="Desktop" stroke="none" stroke-width="1" fill="none" fill-rule="evenodd">
        <g id="Training-Page---Core---2" transform="translate(-95.000000, -815.000000)" fill="#3CC6FE">
            <path d="M116.314985,819.403322 C114.797862,817.935607 112.893356,816.86586 110.769721,816.362335 C111.227715,816.863033 111.678503,817.440242 112.106412,818.097036 C112.604163,818.861031 113.042803,819.686557 113.413741,820.574952 C113.805658,820.468474 114.180198,820.350601 114.537543,820.222414 C115.148241,820.003345 115.661766,819.769969 116.080689,819.538381 C116.171097,819.488402 116.249155,819.443108 116.314985,819.403322 Z M117.044345,820.174019 C116.630261,820.458252 115.916282,820.832723 114.888702,821.201336 C114.535891,821.327896 114.168043,821.444879 113.785045,821.551413 C114.387845,823.301909 114.74178,825.275162 114.7902,827.48 L119.948899,827.48 C119.829589,824.691011 118.755138,822.149418 117.044345,820.174019 Z M108.52,821.231043 C109.943701,821.20115 111.231639,821.056315 112.387588,820.818854 C112.055584,820.048614 111.669164,819.331094 111.235033,818.664749 C110.68755,817.824421 110.102488,817.128531 109.519698,816.569562 C109.295643,816.354666 109.106548,816.191569 108.963612,816.078256 C108.816476,816.066525 108.668589,816.057458 108.52,816.051101 L108.52,821.231043 Z M108.52,822.271258 L108.52,827.48 L113.749945,827.48 C113.701165,825.354854 113.355663,823.466227 112.770842,821.800894 C111.501811,822.074147 110.085977,822.239616 108.52,822.271258 Z M99.6983893,819.390403 C99.7668051,819.433786 99.8509456,819.484641 99.9510698,819.541716 C100.355737,819.772395 100.854913,820.005029 101.452101,820.223538 C101.825255,820.360073 102.218638,820.484902 102.632544,820.596711 C103.005394,819.700032 103.447127,818.867264 103.948939,818.097036 C104.38155,817.433025 104.837546,816.850357 105.300731,816.345857 C103.155015,816.840835 101.230107,817.913143 99.6983893,819.390403 Z M98.9706986,820.156682 C97.2511621,822.134537 96.1707608,824.682845 96.0511012,827.48 L101.265151,827.48 C101.313366,825.284508 101.664512,823.318641 102.262655,821.573683 C101.85535,821.460943 101.46611,821.336095 101.09474,821.200212 C100.07087,820.825583 99.3693466,820.444351 98.9706986,820.156682 Z M107.48,821.232425 L107.48,816.051101 C107.352042,816.056575 107.224604,816.06406 107.097718,816.073524 C106.954094,816.187011 106.762846,816.351656 106.535653,816.569562 C105.952863,817.128531 105.367802,817.824421 104.820318,818.664749 C104.382561,819.33666 103.993315,820.060604 103.659455,820.838166 C104.7968,821.067962 106.068688,821.206602 107.48,821.232425 Z M107.48,822.272587 C105.926649,822.245226 104.527329,822.086295 103.277465,821.820994 C102.696915,823.48142 102.35399,825.363399 102.305406,827.48 L107.48,827.48 L107.48,822.272587 Z M116.329018,836.58308 C116.263669,836.542008 116.184932,836.494666 116.092602,836.442034 C115.687935,836.211355 115.188759,835.978721 114.591571,835.760212 C114.22313,835.625401 113.834968,835.502003 113.426802,835.391282 C113.052261,836.291868 112.607987,837.127761 112.102928,837.90037 C111.671576,838.560225 111.217007,839.139408 110.75523,839.641091 C112.891249,839.137457 114.806169,838.061129 116.329018,836.58308 Z M117.054722,835.813983 C118.759482,833.840296 119.82983,831.303346 119.948899,828.52 L114.790389,828.52 C114.743014,830.711319 114.393178,832.67319 113.79661,834.414391 C114.198259,834.525997 114.582303,834.64939 114.948932,834.783538 C115.957354,835.152515 116.653083,835.527897 117.054722,835.813983 Z M108.52,834.750562 L108.52,839.948899 C108.661321,839.942853 108.802008,839.934355 108.942017,839.923446 C109.086919,839.810189 109.282232,839.643385 109.515362,839.420742 C110.098737,838.863608 110.684388,838.169667 111.232424,837.331316 C111.673179,836.657076 112.064804,835.930127 112.4003,835.148841 C111.24716,834.914722 109.955427,834.774411 108.52,834.750562 Z M108.52,833.710429 C110.097425,833.735663 111.516552,833.896317 112.782144,834.166146 C113.360918,832.509738 113.702413,830.632072 113.750142,828.52 L108.52,828.52 L108.52,833.710429 Z M99.6916034,836.603047 C101.227868,838.087017 103.160516,839.163267 105.315233,839.657479 C104.848263,839.152032 104.38848,838.567422 103.952424,837.90037 C103.45037,837.132359 103.00838,836.301815 102.635244,835.407355 C102.241398,835.514211 101.865088,835.63257 101.506129,835.761336 C100.895431,835.980405 100.381905,836.213781 99.9629828,836.445369 C99.8549619,836.505085 99.7645725,836.558112 99.6916034,836.603047 Z M98.9632801,835.834777 C99.3713421,835.547712 100.096918,835.161958 101.15497,834.782414 C101.509539,834.655223 101.879295,834.537706 102.264354,834.430745 C101.664368,832.685477 101.312486,830.718183 101.264962,828.52 L96.0511012,828.52 C96.1705886,831.31313 97.248055,833.858129 98.9632801,835.834777 Z M107.48,834.753661 C106.075831,834.785524 104.804206,834.929412 103.66148,835.163788 C103.995546,835.939401 104.384985,836.661377 104.822928,837.331316 C105.370963,838.169667 105.956614,838.863608 106.539989,839.420742 C106.776307,839.64643 106.973768,839.814741 107.11925,839.928063 C107.23902,839.936781 107.359278,839.943734 107.48,839.948899 L107.48,834.753661 Z M107.48,833.71341 L107.48,828.52 L102.305209,828.52 C102.353086,830.638647 102.696562,832.521428 103.27862,834.18161 C104.534356,833.91164 105.933738,833.747171 107.48,833.71341 Z M108,841 C100.820298,841 95,835.179702 95,828 C95,820.820298 100.820298,815 108,815 C115.179702,815 121,820.820298 121,828 C121,835.179702 115.179702,841 108,841 Z" id="World-Clock"></path>
        </g>
    </g>
</svg>