<?xml version="1.0" encoding="UTF-8"?>
<svg width="60px" height="60px" viewBox="0 0 60 60" version="1.1" xmlns="http://www.w3.org/2000/svg" xmlns:xlink="http://www.w3.org/1999/xlink">
    <!-- Generator: Sketch 42 (36781) - http://www.bohemiancoding.com/sketch -->
    <title>World Clock</title>
    <desc>Created with Sketch.</desc>
    <defs></defs>
    <g id="Desktop" stroke="none" stroke-width="1" fill="none" fill-rule="evenodd">
        <g id="Training-Page---Core---2" transform="translate(-96.000000, -1560.000000)" fill="#929292">
            <path d="M145.188428,1570.16151 C141.687375,1566.77448 137.292361,1564.30583 132.391663,1563.14385 C133.448574,1564.29931 134.488854,1565.63133 135.476335,1567.14701 C136.624992,1568.91007 137.637239,1570.81513 138.493249,1572.86527 C139.397673,1572.61955 140.261995,1572.34754 141.086639,1572.05172 C142.49594,1571.54618 143.681,1571.00762 144.647744,1570.47319 C144.856378,1570.35785 145.036511,1570.25333 145.188428,1570.16151 Z M146.871565,1571.94004 C145.915986,1572.59597 144.268343,1573.46013 141.897004,1574.31078 C141.082826,1574.60284 140.233945,1574.8728 139.350103,1575.11864 C140.74118,1579.15825 141.557955,1583.71191 141.669693,1588.8 L153.574382,1588.8 C153.29905,1582.36387 150.819549,1576.49866 146.871565,1571.94004 Z M127.2,1574.37933 C130.485465,1574.31035 133.457627,1573.97611 136.125203,1573.42812 C135.359041,1571.65065 134.467302,1569.99483 133.465461,1568.45711 C132.202038,1566.5179 130.851896,1564.91199 129.506996,1563.62207 C128.989946,1563.12615 128.553571,1562.74978 128.22372,1562.48828 C127.884175,1562.46121 127.542898,1562.44029 127.2,1562.42562 L127.2,1574.37933 Z M127.2,1576.77983 L127.2,1588.8 L139.269104,1588.8 C139.156536,1583.89582 138.359222,1579.53745 137.009636,1575.69437 C134.081102,1576.32495 130.813793,1576.70681 127.2,1576.77983 Z M106.842437,1570.1317 C107.00032,1570.23181 107.19449,1570.34917 107.425546,1570.48088 C108.359392,1571.01322 109.511337,1571.55007 110.889463,1572.05432 C111.750589,1572.3694 112.658395,1572.65747 113.613563,1572.91549 C114.473986,1570.84623 115.493369,1568.92446 116.651398,1567.14701 C117.649731,1565.61467 118.702028,1564.27005 119.770918,1563.10582 C114.819264,1564.24808 110.37717,1566.72264 106.842437,1570.1317 Z M105.163151,1571.90004 C101.194989,1576.46432 98.7017556,1582.34503 98.425618,1588.8 L110.458041,1588.8 C110.569305,1583.73348 111.379643,1579.19686 112.759973,1575.17004 C111.820039,1574.90987 110.921793,1574.62176 110.064785,1574.30818 C107.702007,1573.44365 106.083108,1572.56389 105.163151,1571.90004 Z M124.8,1574.38252 L124.8,1562.42562 C124.504711,1562.43825 124.210625,1562.45552 123.917811,1562.47736 C123.58637,1562.73926 123.14503,1563.11921 122.620737,1563.62207 C121.275838,1564.91199 119.925696,1566.5179 118.662273,1568.45711 C117.652064,1570.00768 116.753803,1571.67832 115.983358,1573.47269 C118.607999,1574.00299 121.543127,1574.32293 124.8,1574.38252 Z M124.8,1576.78289 C121.215343,1576.71975 117.986143,1576.35299 115.101843,1575.74076 C113.762111,1579.57251 112.970745,1583.91554 112.85863,1588.8 L124.8,1588.8 L124.8,1576.78289 Z M145.220812,1609.80711 C145.070006,1609.71233 144.888304,1609.60308 144.675236,1609.48162 C143.741389,1608.94928 142.589445,1608.41243 141.211318,1607.90818 C140.361069,1607.59708 139.465311,1607.31232 138.523389,1607.05681 C137.659065,1609.13508 136.633817,1611.06406 135.468295,1612.84701 C134.472869,1614.36975 133.423861,1615.70633 132.358223,1616.86406 C137.287497,1615.70182 141.706544,1613.21799 145.220812,1609.80711 Z M146.895512,1608.03227 C150.829574,1603.47761 153.299608,1597.62311 153.574382,1591.2 L141.670128,1591.2 C141.560801,1596.2569 140.753487,1600.78429 139.376793,1604.80244 C140.303674,1605.05999 141.189931,1605.34475 142.035997,1605.65432 C144.363124,1606.5058 145.968652,1607.37207 146.895512,1608.03227 Z M127.2,1605.57822 L127.2,1617.57438 C127.526126,1617.56043 127.850787,1617.54082 128.173886,1617.51565 C128.508274,1617.25428 128.958997,1616.86935 129.496989,1616.35556 C130.84324,1615.06987 132.194742,1613.46846 133.459439,1611.53381 C134.476566,1609.97787 135.380318,1608.30029 136.154538,1606.49733 C133.493445,1605.95705 130.512524,1605.63326 127.2,1605.57822 Z M127.2,1603.17791 C130.840212,1603.23614 134.11512,1603.60688 137.035717,1604.22957 C138.37135,1600.40709 139.159415,1596.07401 139.269558,1591.2 L127.2,1591.2 L127.2,1603.17791 Z M106.826777,1609.85319 C110.372002,1613.27773 114.831961,1615.76138 119.804385,1616.90187 C118.726761,1615.73546 117.665722,1614.38636 116.659439,1612.84701 C115.500854,1611.07467 114.480877,1609.15804 113.619793,1607.0939 C112.710919,1607.34049 111.842512,1607.61362 111.014143,1607.91078 C109.604841,1608.41632 108.419782,1608.95488 107.453037,1609.48931 C107.203758,1609.62712 106.995167,1609.74949 106.826777,1609.85319 Z M105.146031,1608.08025 C106.087712,1607.4178 107.762118,1606.5276 110.203777,1605.65172 C111.022013,1605.35821 111.875297,1605.08701 112.763893,1604.84018 C111.379311,1600.81264 110.567275,1596.27273 110.457605,1591.20001 L98.425618,1591.2 C98.7013583,1597.64568 101.187819,1603.51876 105.146031,1608.08025 Z M124.8,1605.58537 C121.55961,1605.6589 118.62509,1605.99095 115.98803,1606.53182 C116.758952,1608.32169 117.657657,1609.98779 118.668295,1611.53381 C119.932992,1613.46846 121.284494,1615.06987 122.630744,1616.35556 C123.176094,1616.87638 123.631771,1617.26479 123.967501,1617.5263 C124.243891,1617.54642 124.521411,1617.56246 124.8,1617.57438 L124.8,1605.58537 Z M124.8,1603.18479 L124.8,1591.2 L112.858176,1591.2 C112.968661,1596.08919 113.761297,1600.43406 115.104507,1604.26525 C118.002359,1603.64225 121.231703,1603.2627 124.8,1603.18479 Z M126,1620 C109.431458,1620 96,1606.56854 96,1590 C96,1573.43146 109.431458,1560 126,1560 C142.568542,1560 156,1573.43146 156,1590 C156,1606.56854 142.568542,1620 126,1620 Z" id="World-Clock"></path>
        </g>
    </g>
</svg>