<?xml version="1.0" encoding="UTF-8" standalone="no"?>
<svg width="300px" height="407px" viewBox="0 0 300 407" version="1.1" xmlns="http://www.w3.org/2000/svg" xmlns:xlink="http://www.w3.org/1999/xlink">
    <!-- Generator: Sketch 42 (36781) - http://www.bohemiancoding.com/sketch -->
    <title>Group 4</title>
    <desc>Created with Sketch.</desc>
    <defs></defs>
    <g id="Desktop" stroke="none" stroke-width="1" fill="none" fill-rule="evenodd">
        <g id="sign-in-pop-up--homepage-filled-in" transform="translate(-362.000000, -2177.000000)">
            <g id="Group-4" transform="translate(362.000000, 2177.000000)">
                <rect id="Rectangle-2" fill="#96C2D4" opacity="0.599999964" x="0" y="0" width="300" height="407" rx="8"></rect>
                <g id="Group-11" transform="translate(46.000000, 29.000000)">
                    <g id="second-icon" transform="translate(29.000000, 90.000000)">
                        <g id="Icon-2" transform="translate(25.000000, 35.000000)" fill="#4A4A4A">
                            <g id="Group-5">
                                <g id="Icon-2">
                                    <g id="Asset-2">
                                        <g id="Layer_2">
                                            <g id="Layer_1-2">
                                                <path d="M38.0816471,15.3805926 C38.1285882,15.3638616 38.0421176,15.1128962 38.2669412,15.4570773 C38.5930736,15.9532901 38.9805198,16.4091875 39.4207059,16.8146805 C39.838841,17.2053137 40.3193644,17.5281454 40.8437647,17.7707391 L40.9574118,17.7372771 C41.7504014,18.1501439 42.5766277,18.5002481 43.428,18.7841612 C45.0247963,19.243166 46.6731208,19.5136234 48.3370588,19.5896406 C48.2950588,19.5585687 48.2777647,19.5322771 48.4408235,19.5298869 C49.1251765,19.5513982 50.0738824,19.5920307 51.0596471,19.5298869 C51.2054118,19.5155461 51.3487059,19.5059855 51.492,19.4868643 C51.5505571,19.4806239 51.6048819,19.4543459 51.6451765,19.4127698 C52.0849412,19.3793077 52.4827059,19.3386752 52.8804706,19.2813117 C53.55506,19.1551225 54.2041345,18.9242857 54.8025882,18.5977298 C55.3773657,18.2661031 55.9012817,17.8582036 56.3590588,17.3859255 C56.779899,16.9525323 57.1765786,16.4977602 57.5474118,16.023542 C57.918,15.5598536 58.2885882,15.0674834 58.6097647,14.5679428 C59.3183205,13.5322089 59.8427381,12.3890721 60.1612941,11.1858855 C60.4753894,9.93215819 60.50489,8.62746713 60.2477647,7.36165117 C59.9959023,6.3270989 59.5915261,5.33297519 59.0470588,4.40982026 C58.6445279,3.67341733 58.1554027,2.98447116 57.5894118,2.35668443 C57.0226754,1.73634781 56.3719768,1.19286107 55.6549412,0.74094541 C55.6672941,0.82938083 55.4696471,0.783968047 55.1805882,0.683581895 C55.0397647,0.628608526 54.8643529,0.578415449 54.6864706,0.521051934 C54.5085882,0.463688418 54.3134118,0.39437417 54.1182353,0.35374168 L53.5672941,0.229454063 C53.3943529,0.203162451 53.2411765,0.188821572 53.1225882,0.181651133 C52.8755294,0.181651133 52.7865882,0.205552598 52.9348235,0.320279629 C52.7075294,0.243794941 52.4407059,0.203162451 52.1788235,0.141018643 C51.9169412,0.078874834 51.6352941,0.0645339551 51.3882353,0.0286817578 C50.8941176,-0.00478029297 50.5210588,-0.0143408789 50.484,0.0286817578 C50.4029443,0.105446472 50.3073053,0.166318196 50.2023529,0.207942744 C50.0664706,0.267696406 49.8811765,0.322669775 49.6291765,0.401544609 C49.5031765,0.439786953 49.3623529,0.473249004 49.2017647,0.513881494 C49.0411765,0.554513985 48.8657647,0.6118775 48.6681176,0.662070576 C48.4704706,0.712263653 48.258,0.791138487 48.0208235,0.855672442 C47.7836471,0.920206397 47.5267059,1.02776299 47.2524706,1.1209787 C47.04,1.20941412 46.7904706,1.28350866 46.5434118,1.38389481 C46.2963529,1.48428097 46.0492941,1.57749668 45.8170588,1.697004 C45.4824483,1.84642141 45.1652462,2.0299049 44.8708235,2.24434755 C44.7645882,2.33995341 44.7868235,2.34951399 44.8708235,2.31605194 C44.9548235,2.28258989 45.0882353,2.23000667 45.2241176,2.16786286 C45.4884706,2.0411851 45.7676471,1.94796939 45.57,2.09615847 C48.4531765,0.499540615 52.2776471,0.528222373 54.9582353,2.25390814 C57.6264706,3.94135155 59.1582353,7.48593879 58.3207059,10.5477164 C58.2367059,11.0687684 57.8092941,12.3666179 56.6456471,13.8939215 C56.3590588,14.276345 56.0329412,14.6754994 55.6747059,15.0889948 C55.3312546,15.4952584 54.9562855,15.8755972 54.5530588,16.2267045 C54.1848969,16.5516241 53.7565492,16.8062657 53.2905882,16.9772105 C52.7539304,17.1463362 52.1981575,17.2522666 51.6352941,17.2927098 C50.3915062,17.4199252 49.1377683,17.4279313 47.8923529,17.3166113 C46.7216992,17.2103712 45.5637811,16.9991303 44.4335294,16.6856126 C43.9048235,16.5422038 43.4008235,16.3725034 42.9388235,16.2075833 C42.5241515,16.0574102 42.1212226,15.8784812 41.7331765,15.6721905 C41.206362,15.406579 40.7492093,15.0280762 40.3965882,14.5655527 C40.3364716,14.4886633 40.2804005,14.4088905 40.2285882,14.326538 C39.7665882,13.576032 39.6282353,12.4574435 39.7789412,11.3340746 C39.8495994,10.7770479 39.9660867,10.2263634 40.1272941,9.6872637 C40.2755294,9.14948074 40.4583529,8.65233028 40.6214118,8.20059259 C40.9176331,7.35482477 41.2793648,6.53187407 41.7035294,5.73874171 C41.4342353,6.06619178 41.1921176,6.38169112 40.9845882,6.65655796 C41.4391765,5.84390816 41.9876471,5.09101201 42.1655294,4.77790282 C42.7238824,3.95330229 42.84,3.76209057 42.6917647,3.82184423 C42.3935858,4.00459041 42.1139825,4.21426753 41.8567059,4.44806261 C41.4515294,4.85677766 41.7998824,4.15885488 41.202,4.83765649 C41.5147748,4.39535326 41.8503763,3.96856991 42.2075294,3.55892812 C42.2075294,3.50395475 41.8814118,3.89354862 41.6096471,4.25685089 C41.3378824,4.62015316 41.1155294,4.95477366 41.1797647,4.73488019 C41.5676471,4.24011986 41.9678824,3.65931427 42.4150588,3.17172439 C42.1015622,3.43193589 41.8219761,3.72810256 41.5824706,4.05368844 L41.1476471,4.60103198 C41.0364706,4.74444077 40.9598824,4.82570575 40.9524706,4.78985356 C41.1585715,4.49670326 41.384724,4.21722815 41.6294118,3.95330229 C41.9135294,3.62346207 42.1902353,3.32708391 42.1803529,3.23625834 C41.9457732,3.45737189 41.7308936,3.69723712 41.538,3.95330229 C42.1507059,3.14304263 42.6744706,2.54550601 42.8523529,2.29215048 C43.0302353,2.03879495 42.84,2.11049935 42.1383529,2.75822904 C42.5805882,2.28019975 43.2896471,1.66115181 43.8109412,1.19985354 L43.8109412,1.19985354 L43.3168235,1.61334888 C43.1414118,1.7687084 42.9684706,1.91928763 42.8523529,2.03162451 C43.1389412,1.75914781 43.4304706,1.49145141 43.7343529,1.23570573 L43.5416471,1.33370174 C43.2945882,1.51535287 43.0796471,1.71134488 42.8523529,1.92406792 C43.0475294,1.74719708 43.2352941,1.56076565 43.4378824,1.38867511 C43.2251595,1.50028671 43.0189638,1.62316764 42.8202353,1.75675767 C42.1818219,2.23875691 41.5920136,2.77814999 41.0587059,3.3677164 C39.7219924,4.98285705 38.6876919,6.81180669 38.0025882,8.7718376 C37.6286746,9.7886095 37.4065562,10.8517738 37.3429412,11.9292211 C37.3127612,12.5043792 37.3508929,13.0809882 37.4565882,13.6477364 C37.568285,14.2538571 37.7792936,14.8388383 38.0816471,15.3805926 L38.0816471,15.3805926 Z" id="Shape"></path>
                                                <path d="M36.7351765,42.6569443 C36.7771765,42.6856261 36.9501176,42.3892479 36.7747059,42.8840082 C36.5004706,43.663196 36.1990588,44.3467779 35.91,45.0351401 C35.6209412,45.7235023 35.3318824,46.4118644 35.0872941,47.2030029 L35.1243529,47.3416314 C34.902,47.9415582 34.6598824,48.5367047 34.4375294,49.1748738 L34.2621176,49.6529031 L33.9458824,50.5731095 L33.6247059,51.5100469 C33.894,51.6797473 34.2028235,51.8327167 34.4943529,51.9880762 L35.8037647,52.6764384 L36.6536471,53.1162253 C37.2202353,53.4078232 37.7909412,53.6954375 38.3657647,53.9790682 C39.5145882,54.5431428 40.6831765,55.0833159 41.874,55.5804664 C41.8245882,55.5278831 41.8048235,55.4920309 42.0469412,55.5804664 C43.0351765,55.9772307 44.4187059,56.5580363 45.9134118,57.0145543 L46.578,57.1985955 C46.6639261,57.2197402 46.7539563,57.2197402 46.8398824,57.1985955 C47.1808235,57.2918112 47.502,57.3826368 47.8132941,57.4543412 C48.1245882,57.5260456 48.4185882,57.6049204 48.7076471,57.662284 C50.6261376,58.0189382 52.5836582,58.1386048 54.5332941,58.0184158 C56.5324017,57.8984479 58.4949876,57.4448013 60.3342353,56.6775436 C61.2768432,56.2933516 62.1711875,55.8066126 63,55.2267247 C63.8287689,54.6278206 64.5861286,53.9416155 65.2581176,53.1807593 C65.9420232,52.4114062 66.5230646,51.5617977 66.9875294,50.6519843 C67.4647826,49.7283921 67.808133,48.7455519 68.0078824,47.7312253 C68.2942618,46.0141703 68.1093866,44.2544605 67.4717647,42.6282626 C66.9965431,41.3744729 66.3483216,40.1885812 65.5447059,39.1027965 C64.7672754,38.0425713 63.9171274,37.0340507 63,36.0840415 C63.0568235,36.5118777 58.884,32.534674 59.4892941,33.5409256 C58.38,32.4223371 56.7148235,30.7444542 56.5715294,30.7109922 C56.1391765,30.6153863 55.0891765,29.9437552 52.0207059,27.0827498 C50.8397647,25.9474302 49.1350588,24.099847 48.6903529,23.7365447 C47.9911765,23.1461786 50.0689412,25.3522838 49.3697647,24.7619176 L55.7488235,31.1914116 L58.926,34.3703065 C59.9834118,35.4315315 61.0605882,36.4784157 62.0611765,37.52769 C63.0492283,38.5413144 63.9421564,39.6379299 64.7294118,40.8045808 C65.1030822,41.368462 65.425468,41.9626506 65.6929412,42.5804596 C65.8312941,42.8816181 65.94,43.1947273 66.0412941,43.5030562 C66.1336153,43.813812 66.2094787,44.1289247 66.2685882,44.447164 L66.3155294,44.6861787 C66.3155294,44.7650535 66.3303529,44.8439284 66.3402353,44.9251933 L66.3896471,45.4032226 L66.3896471,46.1202666 L66.3674118,46.3592812 L66.3229412,46.8373105 L66.234,47.3153398 C66.2191765,47.3942147 66.2068235,47.4754796 66.1870588,47.5543545 L66.1203529,47.7933691 C66.0758824,47.9511188 66.0363529,48.1112586 65.9869412,48.2713984 C65.553222,49.5474198 64.8639901,50.7283135 63.9585882,51.7466714 C62.607547,53.3572827 60.8067314,54.5585583 58.7703529,55.2076035 C57.1154196,55.7519921 55.3795124,56.0305442 53.6315294,56.032204 C51.6348117,56.0342781 49.6469549,55.7753949 47.7218824,55.2625769 C43.7195294,54.2300336 39.8728235,52.2414317 36.5721176,50.5014051 L36.4856471,50.4559923 L36.4436471,50.434481 C36.4466674,50.4198662 36.4507962,50.4054864 36.456,50.3914583 L36.666,49.7532892 C36.9130588,48.9693212 37.1897647,48.2403265 37.422,47.5591348 L38.1038824,45.7115515 L38.6696471,44.2631228 L38.8969412,43.663196 C39.6183529,41.8729763 40.4509412,39.9034956 41.2909412,38.01767 C42.1309412,36.1318444 42.9882353,34.3320641 43.6874118,32.8501733 L44.6509412,30.7922572 C44.9869412,30.1086753 45.3130588,29.4179229 45.6564706,28.7367312 L44.5941176,30.3668111 C45.3352941,29.0020374 46.1283529,27.6611653 46.3803529,27.118602 C47.9714118,24.2121839 46.8892941,25.7538284 46.0641176,26.76008 C45.5255294,27.5153663 46.0369412,26.3752665 45.2414118,27.5846806 C45.7577647,26.6812052 46.0344706,26.2390281 46.5730588,25.340333 C46.5730588,25.2686286 46.1654118,25.9641613 45.7972941,26.5927698 C45.4291765,27.2213783 45.1104706,27.787843 45.2315294,27.4436619 C45.4934118,27.0134356 45.7552941,26.5521373 46.0270588,26.0884489 C46.2988235,25.6247605 46.5582353,25.1491213 46.8374118,24.7069442 C46.4498736,25.2219608 46.0974782,25.7608882 45.7824706,26.3202931 C45.3427059,27.037337 44.9597647,27.7065781 44.9498824,27.6109722 C45.1969412,27.1042611 46.5631765,25.1515115 46.5508235,24.9124968 C46.5508235,24.8646939 46.0097647,25.7609988 45.7404706,26.2103464 C46.5384706,24.8121107 47.1709412,23.7365447 47.3735294,23.3015381 C47.5761176,22.8665314 47.3735294,23.0792545 46.5285882,24.295839 C46.8003529,23.8632225 47.1338824,23.3397804 47.4797647,22.8211186 C47.8256471,22.3024569 48.1789412,21.7742345 48.468,21.3153264 L48.468,21.3153264 L47.3611765,22.957357 L48.3642353,21.4109322 L48.1418824,21.6499469 C47.88,22.02759 47.6181176,22.4076233 47.3587059,22.8115581 L48.0257647,21.7837951 C47.8231765,22.0228097 47.5983529,22.2928963 47.3537647,22.598835 C46.5014118,23.7939083 45.6638824,24.914887 45.2636471,25.5936886 C41.9467989,31.0480601 39.0945503,36.754669 36.7351765,42.6569443 L36.7351765,42.6569443 Z" id="Shape"></path>
                                                <path d="M32.9576471,19.7951932 C32.9576471,19.8429961 33.0811765,19.9075301 32.8588235,19.9027498 C32.1571765,19.8621173 31.6235294,19.6326632 30.9194118,19.5920307 L30.8601176,19.6637351 C30.3264706,19.5657391 29.7705882,19.4534022 29.2048235,19.3458456 C28.1490588,19.2279318 27.0982353,19.1171883 26.0523529,19.0136153 C26.0745882,19.0446872 26.0844706,19.073369 25.9807059,19.0709788 C25.5434118,19.0375168 24.9455294,18.9371306 24.3229412,18.8510853 L24.0462353,18.829574 C24.0045366,18.8294475 23.9648492,18.8468998 23.9375294,18.8773769 C23.6558824,18.8391346 23.4063529,18.8008923 23.1765882,18.7650401 C20.0982353,18.5403663 16.968,18.3372038 13.5783529,18.1005793 C12.8569412,18.0838483 12.1355294,18.0671173 11.4462353,18.0169242 C10.4258824,17.9213183 9.13623529,17.7109855 8.14552941,17.5795274 C8.26164706,17.8711253 5.82811765,17.7085953 6.27282353,18.0432158 C5.61317647,17.9571705 4.62247059,17.8257125 4.56070588,17.8950267 C4.37788235,18.1077498 3.83435294,18.3133024 2.06047059,18.2368177 C1.36870588,18.1842345 0.331058824,17.9571705 0.084,17.9739016 C-0.313764706,18.0097538 0.943764706,18.2487684 0.553411765,18.2798403 C5.64529412,18.9968843 10.5716471,19.4964249 15.708,20.1298137 C17.472,20.2230294 29.2764706,21.6236553 32.298,22.0419309 L32.5747059,22.0730028 C34.2250588,22.2905061 36.2361176,22.51757 37.6492941,22.5868843 C38.2990588,22.6012252 38.9611765,22.6036153 39.6257647,22.6083956 C39.3292941,22.5271306 39.0550588,22.4458656 38.8203529,22.369381 C39.3432751,22.4549774 39.8714965,22.5068782 40.4015294,22.5247405 C41.8245882,22.582104 41.0463529,22.3454795 40.5275294,22.092124 C40.1495294,21.9630561 40.6930588,21.9033024 40.0927059,21.7455527 L41.1921176,21.8913517 C41.2538824,21.8196473 39.8308235,21.7646739 40.152,21.6738483 C40.572,21.7551133 41.0537647,21.767064 41.4910588,21.8244276 C41.3527059,21.7001399 39.9716471,21.5854129 40.0531765,21.5017578 C40.3002353,21.5017578 41.2711765,21.7957458 41.3749412,21.6762385 C41.165598,21.6206212 40.9513952,21.5838162 40.7350588,21.5662917 C42.0963529,21.6929695 42.8597647,21.6618976 41.6392941,21.3702997 C42.0691765,21.4276632 42.6695294,21.5567311 43.1216471,21.5949735 L43.1216471,21.5949735 C42.8943529,21.5639016 42.5089412,21.4874169 42.2989412,21.4611253 L43.0722353,21.5639016 L42.9437647,21.4945873 C42.7535294,21.4539548 42.5608235,21.4181027 42.3607059,21.391811 L42.8745882,21.4587351 C42.7510588,21.4013716 42.6102353,21.341618 42.4521176,21.2842544 C41.8517647,21.1265048 41.2835294,20.9329029 40.9549412,20.8874901 C38.2941176,20.5050667 35.6209412,20.1322038 32.9576471,19.7951932 Z" id="Shape"></path>
                                                <path d="M60.9074118,23.5214316 C60.9074118,23.4736286 60.7987059,23.430606 60.9617647,23.3995341 C61.4756471,23.3206593 61.9030588,23.4568976 62.4169412,23.3780228 L62.4490588,23.2967578 L63.7016471,23.3302198 C64.4856471,23.2696695 65.2655294,23.2011519 66.0412941,23.1246672 C66.0190588,23.0983756 66.0067059,23.072084 66.0832941,23.0577431 C66.4044706,23.0171107 66.8541176,23.0147205 67.3185882,22.9932092 L67.5211765,22.9669176 C67.5540897,22.9572833 67.5805424,22.9334568 67.5928235,22.9023836 C67.8028235,22.9023836 67.9905882,22.8880427 68.1635294,22.8856526 L75.2294118,21.929594 C75.7556471,21.8244276 76.2794118,21.7192611 76.7883529,21.652337 C77.5443529,21.5734622 78.5177647,21.5639016 79.2589412,21.5256592 C79.128,21.2579628 80.9167059,21.0093876 80.5387059,20.7536419 C81.0328235,20.7273503 81.774,20.6914981 81.8036471,20.6102331 C81.8924616,20.4364173 82.0434529,20.2996842 82.2285882,20.2254196 C82.4756471,20.0915714 82.8808235,19.9696739 83.3131765,19.776072 C83.4678578,19.7244188 83.6181867,19.6612907 83.7628235,19.5872504 C83.8690588,19.5298869 83.9209412,19.465353 83.9209412,19.4271106 C83.9209412,19.3888683 83.9209412,19.3530161 83.8789412,19.3793077 C83.8369412,19.4055993 83.8147059,19.3936486 83.7825882,19.4055993 C83.7504706,19.41755 83.6590588,19.4055993 83.6590588,19.3601865 C83.4701905,19.4861273 83.2536876,19.5679451 83.0265882,19.5992012 C82.8427278,19.6325511 82.6571753,19.6564859 82.4707059,19.6709056 L82.1569412,19.6924169 L81.8085882,19.7139282 L79.0044706,19.9027498 C77.1367059,20.036598 75.2664706,20.1800068 73.3542353,20.2995141 C72.0596471,20.5050667 63.2767059,21.1169442 61.0161176,21.2053796 L60.8110588,21.2221106 C59.5522823,21.2758528 58.2972055,21.3923277 57.0508235,21.571072 C56.5764706,21.6666779 56.0971765,21.7766246 55.6178824,21.8817911 C55.8451765,21.912863 56.0576471,21.9439349 56.2404706,21.9773969 C55.8474328,21.9809255 55.4555125,22.0185215 55.0694118,22.0897338 C54.0292941,22.2737751 54.6321176,22.3741612 55.0471765,22.5343011 C55.3436471,22.598835 54.9582353,22.7494142 55.4202353,22.8019975 L54.6,22.8450201 C54.5678824,22.9262851 55.608,22.7398537 55.3881176,22.8832624 C55.0694118,22.8832624 54.7210588,22.9430161 54.3998824,22.9597471 C54.5209412,23.0577431 55.5388235,22.9262851 55.4943529,23.0338417 C55.3189412,23.0696939 54.5629412,22.9501865 54.5061176,23.0840348 C54.670155,23.104338 54.8361979,23.104338 55.0002353,23.0840348 C53.9922353,23.1892012 53.4462353,23.3469509 54.3776471,23.430606 C54.0564706,23.447337 53.6018824,23.430606 53.2634118,23.4592878 L53.2634118,23.4592878 L53.8810588,23.4592878 L53.3054118,23.4879695 L53.4091765,23.5357724 C53.5556689,23.5430226 53.7024487,23.5430226 53.8489412,23.5357724 L53.466,23.5548936 C53.5751799,23.5942747 53.6865262,23.6277879 53.7995294,23.6552798 C54.1803191,23.721739 54.5647026,23.767225 54.9508235,23.7915181 C56.9248235,23.7222039 58.9235294,23.6385487 60.9074118,23.5214316 Z" id="Shape"></path>
                                                <path d="M66.3575294,67.1583359 C66.3896471,67.1224837 66.3575294,67.0340483 66.4736471,67.093802 C66.8417647,67.3017447 67.0023529,67.6363652 67.3655294,67.8514784 L67.4396471,67.8084558 C67.6867059,68.0283493 67.9189412,68.2649738 68.1635294,68.5063786 L69.6705882,69.6369178 C69.6705882,69.6058459 69.6878824,69.5795543 69.7422353,69.6106262 C69.9596471,69.7588153 70.2215294,70.0050004 70.5056471,70.2487953 L70.6415294,70.3444012 C70.6688234,70.3572483 70.700706,70.3572483 70.728,70.3444012 C70.8564706,70.4543479 70.9750588,70.5571242 71.0689412,70.6527301 C72.5834118,71.711565 74.1127059,72.8038619 75.7210588,74.0682494 C76.0817647,74.3072641 76.4449412,74.5462787 76.7685882,74.8187554 C77.2330588,75.2203 77.7568235,75.8106662 78.1669412,76.2361123 C78.3077647,75.9779765 79.4318824,76.9268646 79.4368235,76.5301003 C79.716,76.8169179 80.1211765,77.2614851 80.2002353,77.2304132 C80.4472941,77.1419778 80.8648235,77.1754399 81.6998824,77.8685823 C82.0087059,78.1553999 82.3669412,78.695573 82.5052941,78.7720577 C82.7202353,78.8939552 82.2582353,78.2629565 82.4805882,78.384854 C81.4651765,77.1897807 80.3978824,76.0974838 79.3058824,75.0147474 C78.2138824,73.9320111 77.0823529,72.8899072 75.9112941,71.8286822 C75.4715294,71.5107927 73.9027059,70.1555796 72.2054118,68.7836355 C70.5081176,67.4116915 68.6971765,66.0373572 67.9683529,65.4613319 L67.83,65.3633359 C67.4223529,65.0597873 66.9702353,64.7251668 66.5156471,64.4240084 C66.0610588,64.1228499 65.6138824,63.8479831 65.2284706,63.6448206 C64.8430588,63.4416582 64.4872941,63.3149804 64.1092941,63.1548406 C64.2352941,63.2958592 64.3563529,63.4297074 64.4477647,63.5492147 C64.1939297,63.3504741 63.9179914,63.1797199 63.6250588,63.0401135 C62.8344706,62.6648605 63.1630588,63.0401135 63.3310588,63.3819045 C63.4817647,63.5802866 63.1408235,63.5061921 63.4002353,63.781059 C63.1828235,63.6256994 63.0691765,63.553995 62.8468235,63.4034158 C62.7776471,63.4488286 63.5583529,63.8240816 63.3285882,63.8288619 C63.1081296,63.6716958 62.8788369,63.5264708 62.6417647,63.3938552 C62.6590588,63.5324837 63.3829412,63.9340283 63.2964706,64.0009524 C63.1655294,63.9364185 62.7529412,63.4703399 62.6343529,63.5492147 C62.6096471,63.5659458 62.832,63.7141349 62.9431765,63.7882294 C62.2316471,63.3699538 61.782,63.226545 62.328,63.7547673 C62.1130588,63.6089684 61.8338824,63.3627833 61.5868235,63.226545 L61.5868235,63.226545 C61.698,63.3054198 61.8808235,63.4655596 61.9870588,63.5277034 L61.5991765,63.2647873 C61.5991765,63.2934691 61.6214118,63.324541 61.6362353,63.3556129 C61.7244854,63.4344465 61.8177246,63.5078865 61.9154118,63.5755064 L61.6683529,63.4010257 C61.7134639,63.4836174 61.7637946,63.5634404 61.8190588,63.6400403 C62.0187203,63.8794493 62.2349842,64.1054414 62.4663529,64.3164518 C63.7782353,65.250999 65.0752941,66.1998872 66.3575294,67.1583359 Z" id="Shape"></path>
                                                <path d="M44.5718824,66.2763719 C44.6212941,66.2763719 44.6756471,66.1998872 44.6929412,66.3313453 C44.7201176,66.7424504 44.5348235,67.0627301 44.5595294,67.4738353 L44.6385882,67.5072973 L44.4681176,68.4848672 C44.4450588,69.1063053 44.4294118,69.7245565 44.4211765,70.3396209 C44.4508235,70.32528 44.478,70.3181096 44.4854118,70.3802534 C44.4854118,70.6359991 44.4434118,70.9897408 44.4137647,71.3554332 L44.4137647,71.5179631 C44.4227974,71.5462872 44.4445965,71.5691339 44.4730588,71.5801069 C44.4607059,71.745027 44.4434118,71.8932161 44.4261176,72.0294545 L44.5891765,77.6702002 C44.6336471,78.0932561 44.6781176,78.5187022 44.6830588,78.9250271 C44.6830588,79.5249539 44.562,80.2850204 44.5076471,80.8682162 C44.7991765,80.7989019 44.8288235,82.2305997 45.1376471,81.9676836 C45.1030588,82.3572774 45.0462353,82.9404732 45.1228235,82.9763254 C45.3550588,83.083882 45.6169412,83.4041616 45.6712941,84.4510458 C45.6712941,84.8573707 45.5205882,85.4716383 45.5551765,85.6174372 C45.6144706,85.8564519 45.7676471,85.1059459 45.8269412,85.3377901 C46.1629412,82.3357661 46.2790588,79.429348 46.4865882,76.3962521 C46.4594118,75.8752002 46.5483529,73.8746476 46.6496471,71.7784891 C46.7509412,69.6823306 46.8695294,67.4953466 46.9436471,66.6014318 L46.9436471,66.4389018 C47.0206407,65.4422952 47.030544,64.4418987 46.9732941,63.4440483 C46.9238824,63.0616249 46.8596471,62.6744211 46.7978824,62.2872174 C46.7435294,62.4640882 46.6891765,62.6266182 46.6372941,62.7652467 C46.6726053,62.4554666 46.6726053,62.1428697 46.6372941,61.8330896 C46.5508235,60.9965383 46.3902353,61.4626169 46.1802353,61.7733359 C46.0863529,62.0003998 45.9702353,61.6849005 45.8664706,62.0410323 L45.9035294,61.3909125 C45.8244706,61.3574504 45.9035294,62.1916115 45.7874118,62.0075703 C45.8294118,61.7685556 45.7874118,61.4769577 45.8071765,61.2188219 C45.6935294,61.3048672 45.7281176,62.117517 45.6218824,62.0721042 C45.6045882,61.9310856 45.7997647,61.3550603 45.6663529,61.2929165 C45.6391765,61.2929165 45.6243529,61.5319311 45.6169412,61.6705596 C45.6169412,60.8698605 45.5008235,60.4252933 45.3229412,61.1471175 C45.3377647,60.893762 45.4094118,60.5376302 45.402,60.2699338 L45.402,60.2699338 C45.402,60.403782 45.3550588,60.633236 45.3476471,60.7479631 L45.3748235,60.2914451 C45.3550588,60.3153465 45.3352941,60.3416382 45.3155294,60.3679298 C45.2925041,60.4816016 45.2768267,60.5965516 45.2685882,60.7121109 L45.2858824,60.4085623 C45.2350776,60.4901393 45.1896917,60.5747623 45.15,60.6619178 C45.0468614,60.9525212 44.9643172,61.2495879 44.9029412,61.5510523 C44.7769412,63.1357194 44.6608235,64.7084358 44.5718824,66.2763719 Z" id="Shape"></path>
                                            </g>
                                        </g>
                                    </g>
                                </g>
                            </g>
                        </g>
                        <circle id="Oval-8" stroke="#4A4A4A" cx="75.5" cy="75.5" r="75.5"></circle>
                    </g>
                    <text id="Partner" font-family="Raleway-Medium, Raleway" font-size="40" font-weight="400" letter-spacing="1.07000005" fill="#4A4A4A">
                        <tspan x="32.4349998" y="38">Partner</tspan>
                    </text>
                    <text id="Interested-in-having" font-family="Raleway-Medium, Raleway" font-size="16" font-weight="400" line-spacing="34" letter-spacing="0.225000009" fill="#6B747D">
                        <tspan x="0.601999875" y="283">Interested in having a yoga </tspan>
                        <tspan x="11.0029999" y="317">program at your facility? </tspan>
                    </text>
                </g>
            </g>
        </g>
    </g>
</svg>