<?xml version="1.0" encoding="iso-8859-1"?>
<!-- Generator: Adobe Illustrator 19.2.1, SVG Export Plug-In . SVG Version: 6.00 Build 0)  -->
<svg version="1.1" xmlns="http://www.w3.org/2000/svg" xmlns:xlink="http://www.w3.org/1999/xlink" x="0px" y="0px"
	 viewBox="0 0 140 140" style="enable-background:new 0 0 140 140;" xml:space="preserve">
<g id="Layer_1" style="display:none;">
	<circle style="display:inline;fill:#343434;" cx="70" cy="70" r="68.812"/>
	<g style="display:inline;">
		<path style="fill:#FFFFFF;" d="M57.379,105.135c-9.446,0-18.238-2.769-25.641-7.515c1.308,0.154,2.64,0.233,3.99,0.233
			c7.837,0,15.049-2.674,20.774-7.16c-7.319-0.135-13.497-4.971-15.625-11.616c1.021,0.195,2.069,0.3,3.147,0.3
			c1.525,0,3.003-0.204,4.407-0.587c-7.652-1.536-13.418-8.297-13.418-16.401c0-0.071,0-0.14,0.001-0.21
			c2.255,1.253,4.834,2.005,7.576,2.092c-4.488-3-7.441-8.119-7.441-13.922c0-3.066,0.825-5.939,2.265-8.409
			c8.25,10.12,20.575,16.779,34.477,17.477c-0.285-1.224-0.433-2.501-0.433-3.812c0-9.237,7.489-16.726,16.727-16.726
			c4.811,0,9.158,2.031,12.209,5.282c3.81-0.75,7.39-2.142,10.622-4.059c-1.249,3.906-3.901,7.184-7.355,9.254
			c3.384-0.404,6.607-1.304,9.607-2.634c-2.243,3.354-5.079,6.3-8.347,8.659c0.032,0.717,0.048,1.439,0.048,2.164
			C104.97,79.647,88.146,105.135,57.379,105.135"/>
	</g>
</g>
<g id="White" style="display:none;">
	<circle style="display:inline;fill:#343434;" cx="70" cy="70" r="68.812"/>
	<path id="White_2_" style="display:inline;fill:#FFFFFF;" d="M100.815,37.312H39.446c-2.103,0-3.807,1.704-3.807,3.807v61.369
		c0,2.103,1.704,3.807,3.807,3.807h33.039V79.582h-8.99V69.171h8.99v-7.678c0-8.91,5.442-13.762,13.39-13.762
		c3.807,0,7.08,0.283,8.033,0.41v9.312l-5.513,0.003c-4.323,0-5.16,2.054-5.16,5.068v6.647h10.309l-1.342,10.411h-8.967v26.714
		h17.579c2.103,0,3.807-1.705,3.807-3.807V41.12C104.622,39.017,102.918,37.312,100.815,37.312z"/>
</g>
<g id="Layer_11" style="display:none;">
	<g style="display:inline;">
		<circle style="fill:#343434;" cx="70" cy="70" r="68.812"/>
		<polygon style="fill:#FFFFFF;" points="98.796,47.915 84.372,33.491 84.372,47.915 		"/>
		<path style="fill:#FFFFFF;" d="M82.156,51.34h-1.414l0-18.361l-42.711,0l0,76.483h64.641l0-57.67l-0.247-0.249l-20.269,0V51.34z
			 M48.077,51.34l22.785,0v6.05l-22.785,0V51.34z M93.646,93.688l-45.569,0l0-6.05l45.569,0V93.688z M93.646,81.587H48.077v-6.049
			h45.569V81.587z M93.646,63.441v6.049H48.077v-6.049L93.646,63.441z"/>
	</g>
</g>
<g id="Layer_10">
	<g id="Layer_3">
	</g>
	<circle style="fill:#343434;" cx="70" cy="70" r="68.812"/>
	<g>
		
			<rect x="76.031" y="93.778" transform="matrix(0.6561 -0.7547 0.7547 0.6561 -42.553 102.92)" style="fill:#FFFFFF;" width="31.223" height="8.738"/>
		
			<rect x="101.964" y="79.356" transform="matrix(0.6558 -0.7549 0.7549 0.6558 -27.3585 107.4418)" style="fill:#FFFFFF;" width="4.376" height="8.738"/>
		<polygon style="fill:#FFFFFF;" points="75.545,115.832 84.006,113.681 77.31,107.827 		"/>
		<g>
			<path style="fill:#FFFFFF;" d="M38.008,35.668v71.812H72.08l26.624-30.296V35.668H38.008z M68.356,83.96H47.551v-6.533h20.805
				V83.96z M89.161,72.6h-41.61v-6.533h41.61V72.6z M89.161,61.24h-41.61v-6.531h41.61V61.24z"/>
		</g>
	</g>
</g>
<g id="Layer_4" style="display:none;">
	<circle style="display:inline;fill:#343434;" cx="70" cy="70" r="68.812"/>
	<polygon style="display:inline;fill:#FFFFFF;" points="43,40 43,104 108.25,72.25 	"/>
</g>
<g id="Layer_9" style="display:none;">
	<g id="Layer_7" style="display:inline;">
		<circle style="fill:#343434;" cx="70" cy="70" r="68.812"/>
	</g>
	<g id="Layer_12" style="display:inline;">
		<path style="fill:#FFFFFF;" d="M56.301,87.457l53.91-6.997V51.138H45.81v-4.215H22.102v6.436h12.215l14.447,35.076l0.295-0.038
			v0.75c-1.979,1.583-3.249,4.015-3.249,6.747c0,4.772,3.867,8.641,8.64,8.641s8.641-3.869,8.641-8.641
			c0-1.939-0.648-3.723-1.725-5.165h32.253c-1.078,1.442-1.724,3.226-1.724,5.165c0,4.772,3.869,8.641,8.64,8.641
			c4.773,0,8.641-3.869,8.641-8.641c0-4.773-3.869-8.642-8.641-8.642c-1.173,0-2.293,0.236-3.316,0.661H57.765
			C57.296,87.72,56.807,87.568,56.301,87.457z"/>
	</g>
</g>
</svg>
