<?xml version="1.0" ?><svg viewBox="0 0 24 24" xmlns="http://www.w3.org/2000/svg"><title/><g data-name="Google Slides" id="Google_Slides"><path d="M9.5,12H14V10H8v5H9V12.5A.5.5,0,0,1,9.5,12Z" style="fill:#303c42"/><rect height="5" style="fill:#303c42" width="6" x="10" y="13"/><path d="M20.85,5.15l-5-5A.5.5,0,0,0,15.5,0H5A2,2,0,0,0,3,2V22a2,2,0,0,0,2,2H19a2,2,0,0,0,2-2V5.5A.5.5,0,0,0,20.85,5.15ZM17,18.5a.5.5,0,0,1-.5.5h-7a.5.5,0,0,1-.5-.5V16H7.5a.5.5,0,0,1-.5-.5v-6A.5.5,0,0,1,7.5,9h7a.5.5,0,0,1,.5.5V12h1.5a.5.5,0,0,1,.5.5ZM17,5a1,1,0,0,1-1-1V1.71L19.29,5Z" style="fill:#303c42"/></g></svg>