<?xml version="1.0" encoding="UTF-8" standalone="no"?>
<svg width="250px" height="402px" viewBox="0 0 250 402" version="1.1" xmlns="http://www.w3.org/2000/svg" xmlns:xlink="http://www.w3.org/1999/xlink">
    <!-- Generator: Sketch 42 (36781) - http://www.bohemiancoding.com/sketch -->
    <title>Group 8</title>
    <desc>Created with Sketch.</desc>
    <defs></defs>
    <g id="Desktop" stroke="none" stroke-width="1" fill="none" fill-rule="evenodd">
        <g id="sign-in-pop-up--homepage-filled-in" transform="translate(-713.000000, -2133.000000)">
            <g id="Group-8" transform="translate(713.000000, 2133.000000)">
                <rect id="Rectangle-2" fill="#AFC5DE" opacity="0.600000024" x="0" y="0" width="250" height="402" rx="8"></rect>
                <g id="Group-7" transform="translate(12.000000, 33.000000)">
                    <g id="third-icon" transform="translate(38.000000, 90.000000)">
                        <g id="Icon-3" transform="translate(52.000000, 23.000000)" fill="#4A4A4A">
                            <g id="Asset-3">
                                <g id="Layer_2">
                                    <g id="Layer_1-2">
                                        <path d="M13.5621,24.4760937 C13.6161,24.4760937 13.6863,24.27012 13.6863,24.6178678 C13.6728,25.1528644 13.6269,25.674486 13.6161,26.2041326 C13.5946328,26.7818983 13.6685041,27.3592615 13.8348,27.9134467 L13.9455,27.9776463 C14.0730034,28.4851593 14.2720607,28.9723382 14.5368,29.4248121 C14.8269946,29.9067893 15.1913852,30.340909 15.6168,30.7114789 C16.3823421,31.2978886 17.2592906,31.7254769 18.1953,31.9687208 C19.0236564,32.1891089 19.8703853,32.3350406 20.7252,32.404743 C20.6874,32.3672933 20.6712,32.3378685 20.8332,32.3432184 C21.5001,32.3913681 22.4046,32.5037174 23.3523,32.570592 L23.7708,32.570592 C23.8286668,32.5714891 23.8846907,32.5504355 23.9274,32.5117424 L25.0884,32.5839669 C26.2521,32.5839669 27.4185,32.5411672 28.5984,32.4662676 C29.1843,32.4261429 29.7702,32.3913681 30.3993,32.3084437 C31.0600236,32.2329793 31.7085851,32.0757113 32.3298,31.8403216 C32.9851411,31.5783473 33.5836607,31.1942309 34.0929,30.7088039 C34.5884519,30.2318456 35.0008338,29.6768536 35.3133,29.0663644 C35.9251729,27.8549796 36.1885987,26.500079 36.0747,25.1501894 C35.9286478,24.0631671 35.6249132,23.002738 35.1729,22.0017345 C34.5285232,20.4637677 33.7077291,19.0043359 32.7267,17.6522123 C32.6673,17.8367861 32.0706,17.218865 31.4658,16.7079433 C31.2094301,16.4866439 30.9388639,16.2820253 30.6558,16.0953722 C30.4452,15.977673 30.3345,15.964298 30.4047,16.1408469 C30.2319,15.972323 30.0456,15.7770492 29.8458,15.6058503 C29.646,15.4346514 29.43,15.2474026 29.241,15.1002786 C29.0178596,14.8942592 28.7625655,14.725339 28.485,14.6000568 C28.3122,14.6455315 28.0422,14.6000568 27.5427,14.4395578 C27.2889,14.3619833 27.0027,14.2309091 26.6004,14.09716 C26.4087,14.0249354 26.2008,13.939336 25.9632,13.8671114 C25.7256,13.7948869 25.4745,13.6932375 25.191,13.621013 L24.84,13.5006388 C24.7212,13.460514 24.5943,13.4310892 24.4674,13.3909645 L24.0867,13.2759402 L23.7087,13.1930157 L23.3604,13.1074163 L23.0499,13.0699665 C22.9121573,13.0506088 22.7732213,13.0407767 22.6341,13.0405417 C22.491,13.0405417 22.5018,13.0753165 22.5882,13.1020663 C22.6746,13.1288162 22.8096,13.1716159 22.9527,13.2090656 C23.2362,13.2839652 23.5116,13.3615397 23.2632,13.3749146 C24.9035743,13.658497 26.4515452,14.3271661 27.7776,15.3249771 C28.4631687,15.8315715 29.1060816,16.3924863 29.7,17.0021914 C30.299621,17.6229834 30.8570432,18.2824752 31.3686,18.9763288 C31.8838233,19.6752721 32.35194,20.4071319 32.7699,21.1671398 C33.1778587,21.8984605 33.5089931,22.6693264 33.7581,23.4676251 C33.9916856,24.219131 34.0993133,25.0034982 34.0767,25.7895103 C34.0417249,26.5357132 33.8446399,27.2656531 33.4989,27.9294966 C33.3320231,28.3036953 33.1039589,28.6480447 32.8239,28.9486651 C32.6229816,29.1759759 32.3891359,29.3724973 32.13,29.5318114 C31.8261648,29.7216666 31.4933829,29.8616756 31.1445,29.9464337 C30.6837489,30.0565383 30.2137846,30.1245889 29.7405,30.1497324 C29.2005,30.1845072 28.6011,30.2059071 28.0017,30.219282 C26.7921,30.2487068 25.5123,30.2380069 24.2217,30.1764823 C23.5764,30.1470575 22.9257,30.1069327 22.2804,30.0534331 C21.6351,29.9999334 20.9844,29.9437588 20.3904,29.8581593 C19.197,29.6949853 18.1305,29.3820123 17.4204,28.8898155 C17.0967545,28.6681149 16.8213149,28.3843119 16.6104,28.0552208 C16.4265729,27.7469026 16.2952175,27.4107119 16.2216,27.0601272 C16.1032018,26.4342781 16.0687038,25.7956835 16.119,25.1608893 L16.1379,24.7837167 C16.2301531,23.5689438 16.4188366,22.3632566 16.7022,21.1778397 C16.9606589,20.1101469 17.3373421,19.0739981 17.8254,18.0882345 C18.0059329,17.6948034 18.2134171,17.3140672 18.4464,16.9486918 C18.678473,16.5727657 18.9393398,16.2150498 19.2267,15.8786986 C18.8919,16.122122 18.6057,16.3815954 18.3492,16.603619 C18.6280018,16.2733151 18.9245299,15.9581037 19.2375,15.65935 C19.5075,15.3918517 19.7559,15.191228 19.8774,15.0628288 C20.6226,14.4395578 20.8035,14.3111586 20.6442,14.2951087 C20.3013055,14.3552469 19.9680575,14.4605024 19.6533,14.6080817 C19.1457,14.8889549 19.6695,14.2844088 18.9,14.7953305 C19.3193293,14.4341073 19.7712229,14.1117585 20.25,13.8323367 C20.25,13.773487 19.8207,14.0463353 19.44,14.3272085 C19.0593,14.6080817 18.7569,14.8862799 18.8838,14.6776313 C19.4086215,14.2415106 19.9725657,13.8538098 20.5686,13.5193637 C20.4161633,13.5567663 20.2698193,13.6153018 20.1339,13.6932375 C19.9023393,13.818226 19.6778997,13.9557499 19.4616,14.1051849 C19.2321,14.254984 19.0296,14.4208329 18.873,14.5278322 C18.7164,14.6348315 18.6273,14.7043811 18.6273,14.6642563 C18.9075567,14.4195414 19.2114181,14.2027166 19.5345,14.0169105 C19.9179,13.778837 20.2878,13.5835632 20.3121,13.4819139 C20.001774,13.613657 19.7088953,13.7825456 19.44,13.9848107 C20.043046,13.5571319 20.6744741,13.1701675 21.33,12.8265431 C21.6189,12.676744 21.3948,12.6205694 20.4417,12.9843671 C21.1864393,12.6448256 21.9723487,12.4020664 22.7799,12.2621217 L22.7799,12.2621217 C22.3292884,12.3281589 21.8849702,12.4310515 21.4515,12.5697447 L21.7539,12.4680954 L22.0617,12.3851709 C22.2669,12.3263213 22.4775,12.2915465 22.6881,12.2487468 L22.4559,12.2326969 C22.2949601,12.2538396 22.1353925,12.284207 21.978,12.3236463 C21.815898,12.3577424 21.6562496,12.402423 21.5001,12.4573954 C21.7710624,12.3658522 22.046874,12.2890548 22.3263,12.2273469 C22.075752,12.2306221 21.8257829,12.2520794 21.5784,12.2915465 C21.0951111,12.3986175 20.6204296,12.5407754 20.1582,12.7168688 C19.9503,12.8024682 19.7559,12.8853927 19.5858,12.9709922 C19.4157,13.0565916 19.2699,13.1395161 19.1538,13.2170906 C18.2146694,13.8369296 17.3777187,14.5966498 16.6725,15.4694262 C16.3343546,15.907531 16.0293252,16.3697766 15.7599,16.8523924 C15.4771915,17.3216688 15.2255613,17.8086501 15.0066,18.3102581 C14.1835995,20.2720459 13.6954477,22.3557177 13.5621,24.4760937 L13.5621,24.4760937 Z" id="Shape"></path>
                                        <path d="M9.882,56.4207397 C9.9333,56.4474895 10.0845,56.1104416 9.9522,56.6668381 C9.5121,58.408252 8.9586,59.7537684 8.5644,61.5032072 L8.6184,61.6503313 L8.0406,63.6859933 L7.7463,64.7345866 C7.6491,65.0823343 7.5465,65.4354321 7.452,65.8500544 C7.36522101,66.2655515 7.31910738,66.6883743 7.3143,67.1126464 C7.30988608,67.6146683 7.40150116,68.1129748 7.5843,68.581212 C7.76638787,69.0653508 8.04874162,69.5063703 8.4132,69.8759037 C8.74511147,70.2129162 9.12540875,70.4995526 9.5418,70.7265483 C10.2683866,71.1028071 11.0501108,71.3636755 11.8584,71.4996184 C12.2337,71.5718429 12.6144,71.6173176 12.9708,71.6520924 L14.013,71.7376918 C13.9428,71.7002421 13.9131,71.6681423 14.1885,71.6815172 C15.3441,71.7376918 16.9425,71.8553911 18.5949,71.8179413 C18.8406,71.8179413 19.0836,71.7965415 19.3212,71.7831665 C19.4167841,71.780572 19.5099589,71.7528786 19.5912,71.7029171 C20.3364,71.6841922 20.9952,71.6413924 21.6081,71.6092927 C25.6257,71.2187451 29.5785,70.4216002 33.5718,69.522806 L36.5823,68.8326604 C37.64081,68.6019578 38.6797894,68.2907374 39.69,67.9017663 C40.7903431,67.488621 41.7785161,66.8273953 42.5763,65.9704287 L42.8625,65.6173309 L43.1163,65.2374833 C43.1973,65.1090842 43.2594,64.9699851 43.3296,64.8335609 C43.4033839,64.7004315 43.4665755,64.5618038 43.5186,64.4189386 C43.6301264,64.1357035 43.7150852,63.8428936 43.7724,63.5442192 C43.8060141,63.39683 43.8312538,63.2476882 43.848,63.097497 L43.8804,62.6454249 C43.8803384,61.660659 43.6820727,60.685791 43.2972,59.7778432 C42.9445096,58.9223999 42.5124574,58.1012264 42.0066,57.3248839 C41.6475,56.7631375 41.2452,56.1773162 40.8105,55.591495 C40.3758,55.0056737 39.9033,54.4359023 39.447,53.8500811 C38.5236,52.6918135 37.6002,51.5442458 36.774,50.570552 C36.774,50.8166505 35.7507,49.7680571 34.7733,48.8425131 C33.7959,47.916969 32.8833,47.0609744 33.1722,47.6253958 C32.0517,46.3547789 30.3129,44.4929908 30.1563,44.460891 C29.6838,44.3645917 28.6011,43.5888466 25.2963,40.555416 C24.0219,39.3489987 22.1292,37.4310359 21.6351,37.0511884 C20.8629,36.4493172 23.1741,38.7337526 22.4019,38.1211815 C27.0654339,42.5480314 31.4845535,47.2208814 35.64,52.1193671 C36.6714,53.3391593 37.6947,54.5696515 38.691,55.8215435 C38.961,56.1371915 39.1797,56.4367896 39.4119,56.7417376 L39.7494,57.2018347 L40.0707,57.6699567 C40.4839878,58.2821565 40.8504128,58.9241649 41.1669,59.5905944 C41.7798,60.8906361 42.0822,62.2655773 41.7393,63.3489454 C41.6853,63.4826946 41.6448,63.6164437 41.5881,63.7501928 C41.5314,63.883942 41.4504,64.0176911 41.3829,64.1353904 C41.2231828,64.3812414 41.0346731,64.607512 40.8213,64.8094861 C40.3284422,65.2498801 39.758336,65.5971153 39.1392,65.8340045 C38.3480118,66.1721923 37.5250074,66.4320383 36.6822,66.6097496 C36.0882,66.7488487 35.3754,66.8986477 34.6113,67.0618217 L32.1381,67.5780934 C28.6281,68.2816139 24.2541,69.1028337 19.7829,69.3114823 C17.5641874,69.4264209 15.3397983,69.3691799 13.1301,69.1402834 C12.6429964,69.0898442 12.1608188,69.0003854 11.6883,68.8727851 C11.2858209,68.7658586 10.9024085,68.5980345 10.5516,68.3752383 C10.301917,68.2144248 10.106369,67.9834318 9.99,67.7118425 C9.87939794,67.4209437 9.84865263,67.1061858 9.9009,66.7996734 C9.96324808,66.3673038 10.053432,65.9393254 10.1709,65.5183566 L10.5084,64.1674902 L11.1348,61.7091809 C11.5344,60.1871156 11.88,58.9245237 12.15,58.0043295 L12.3363,57.3302339 C12.9303,55.3186467 13.6242,53.1091108 14.3721,51.0119242 C15.12,48.9147376 15.9381,46.9352502 16.6698,45.3409604 C16.821,44.9664628 16.9992,44.6053401 17.172,44.2361925 L17.6931,43.1314245 C17.8713,42.7649519 18.0711,42.4091791 18.2601,42.0480565 C18.4491,41.6869338 18.6354,41.3204611 18.8433,40.9780633 C18.3924,41.5906344 17.9982,42.1764556 17.6364,42.6740025 L18.2763,41.6040093 L18.5787,41.1011125 C18.6786,40.9379385 18.7866,40.7881395 18.8811,40.6410154 C19.2726,40.0551942 19.5858,39.5710223 19.7424,39.2874741 C21.7917,36.3851176 20.4579,37.8777581 19.4373,38.8594768 C18.7893,39.6245219 19.4373,38.4288046 18.4815,39.6619717 C19.1052,38.7150277 19.4724,38.2790055 20.1663,37.3748613 C20.1663,37.2946118 19.6479,37.9981323 19.1673,38.6321033 C18.6867,39.2660742 18.3222,39.8759703 18.4815,39.5068227 C18.6408,39.2847991 18.8028,39.0520756 18.9621,38.8140021 C19.1214,38.5759286 19.3077,38.3512301 19.4805,38.1131566 L20.0043,37.4069611 C20.1721702,37.1712697 20.3524185,36.9444755 20.5443,36.7275154 C20.3499,36.8238148 19.7559,37.6156098 19.1943,38.3325052 C18.9,38.6856029 18.6543,39.0601005 18.4761,39.3115489 C18.2979,39.5629973 18.1683,39.7127964 18.1683,39.6619717 C18.2493,39.5308975 18.4113,39.303524 18.6057,39.0333507 L18.9,38.6214033 L19.2618,38.1827061 C19.7397,37.5995599 20.1771,37.0485134 20.1852,36.9147642 C20.1852,36.8612646 19.4886,37.7680838 19.1376,38.2228309 C20.1609,36.7863651 21.0681,35.7538217 21.3624,35.3097745 C21.6567,34.8657273 21.4002,35.0610011 20.2689,36.2379936 L20.8845,35.550523 L21.222,35.1787003 L21.3948,34.9887765 L21.5811,34.8095527 C22.0779,34.3280558 22.5801,33.8412089 22.9959,33.4105366 L22.9959,33.4105366 L21.4299,34.9272519 L22.8771,33.4881111 L22.5828,33.6967598 C22.2102,34.0445076 21.8403,34.3949303 21.4623,34.766753 L22.4262,33.8091091 C22.1562,34.0150828 21.843,34.2585062 21.5082,34.5340294 C21.1734,34.8095527 20.925,35.0904259 20.6496,35.3632741 L19.8612,36.1523941 C19.6047,36.3958176 19.3995,36.6499409 19.2078,36.8746395 C19.0161,37.0993381 18.8514,37.3026368 18.7164,37.4765106 C18.1521,38.1639813 17.6769,38.9103015 17.1666,39.6325469 C16.8966,39.9909946 16.6887,40.3761921 16.4565,40.7506897 L15.7653,41.8822075 L15.1335,43.0431501 C14.9256,43.4310226 14.7015,43.8135452 14.5179,44.2121176 C14.1399,45.0146125 13.7295,45.7850076 13.3947,46.5928524 C12.0076189,49.7889864 10.8341871,53.0720323 9.882,56.4207397 L9.882,56.4207397 Z" id="Shape"></path>
                                        <path d="M20.7441,81.9026269 C20.7981,81.9026269 20.8683,81.8223774 20.8656,81.9855514 C20.8359,82.4991481 20.5659,82.8682957 20.5254,83.3792175 L20.6037,83.4327171 C20.4903,83.8152397 20.3715,84.2111372 20.2338,84.6097096 C20.0745,85.3667298 19.9395,86.1264249 19.7667,86.8754202 C19.8018,86.8754202 19.8342,86.8620452 19.8261,86.9396197 C19.7694,87.2552677 19.6317,87.677915 19.5048,88.1166122 L19.4643,88.314561 C19.4649324,88.3494513 19.481893,88.3820696 19.5102,88.4028354 C19.4508,88.6007841 19.3914,88.777333 19.3347,88.937832 C18.8708395,91.2500617 18.288689,93.5374462 17.5905,95.7911382 C17.4609,96.3100849 17.3205,96.8290316 17.1639,97.3158785 C16.8939,98.0274239 16.4322,98.8807435 16.1136,99.5468142 C16.4457,99.5735641 15.7788,101.266828 16.2216,101.082254 C16.0029,101.528977 15.6357,102.181672 15.6951,102.256572 C15.8679,102.475921 15.9651,102.968117 15.4575,104.211984 C15.228,104.685456 14.7339,105.330127 14.688,105.517376 C14.6151,105.811624 15.1875,105.019829 15.1146,105.314077 C16.1226362,103.663364 17.0357896,101.957577 17.8497,100.20486 C18.6597,98.4554212 19.386,96.6792325 20.0745,94.8388443 C20.1717,94.5178463 20.4012,93.7340764 20.7387,92.7202578 C21.0762,91.7064393 21.438,90.4331474 21.7863,89.1250808 C22.1346,87.8170141 22.4613,86.4741727 22.7124,85.3105551 C22.8501,84.7327588 22.9473,84.1950873 23.0418,83.7349902 L23.274,82.6061474 L23.3037,82.3974988 C23.409,81.7769027 23.5305,81.0867571 23.6034,80.4180114 C23.6763,79.7492657 23.7222,79.0992448 23.7303,78.5642482 C23.706,78.0693764 23.6682,77.5664796 23.6304,77.0689328 C23.5575,77.2936314 23.4846,77.499605 23.4144,77.6761539 C23.4794517,77.2828485 23.5038779,76.8839989 23.4873,76.4857865 C23.4279,75.4157933 23.2308,76.0042896 22.9905,76.3921621 C22.8744,76.6757103 22.7691,76.2717879 22.6314,76.71851 C22.6719,76.3921621 22.6746,76.2263132 22.707,75.8972903 C22.626,75.8544905 22.6773,76.9111088 22.5477,76.6730353 C22.5862486,76.341802 22.6060795,76.0086929 22.6071,75.6752667 C22.4829,75.779591 22.4829,76.8067845 22.3614,76.7452599 C22.3614,76.568711 22.5909,75.8384406 22.4505,75.7662161 C22.4055702,75.9210769 22.3819568,76.0812401 22.3803,76.2423631 C22.4046,75.2312195 22.3047,74.6721481 22.0806,75.5762923 C22.1076,75.2606443 22.1994,74.8139222 22.2021,74.4768743 L22.2021,74.4768743 C22.1859,74.6453983 22.1346,74.9316214 22.1211,75.0867704 L22.1697,74.5169991 C22.1481,74.5464239 22.1238,74.5785237 22.1022,74.6132985 C22.0725714,74.7555571 22.0509381,74.8993358 22.0374,75.0439707 L22.0698,74.6641231 C22.0105676,74.7661901 21.9573777,74.8715841 21.9105,74.9797711 C21.7844171,75.34052 21.6807235,75.7085715 21.6,76.0818641 C21.3678,78.0292517 21.0924,79.9819892 20.7441,81.9026269 Z" id="Shape"></path>
                                        <path d="M32.0679,78.7942968 C32.1219,78.7942968 32.1786,78.7060223 32.2029,78.8504714 C32.2515,79.3052185 32.0679,79.6690162 32.1165,80.1237633 L32.2056,80.1558631 L32.0733,81.2472561 C32.0733,81.9374017 32.103,82.6221973 32.1354,83.304318 C32.1678,83.2855931 32.1975,83.2775681 32.2083,83.3471177 C32.2326,83.6306659 32.2083,84.0238884 32.1921,84.4304858 L32.2083,84.6097096 C32.2206955,84.6405267 32.246504,84.6641292 32.2785,84.6739092 C32.2785,84.858483 32.2785,85.021657 32.2596,85.174131 C32.4405,87.1723433 32.6619,89.1999803 32.8941,91.3961413 C32.9832,91.8589133 33.0696,92.3243604 33.1155,92.7710825 C33.1587,93.4344783 33.1155,94.2824478 33.1155,94.9297937 C33.426,94.8254694 33.6096,96.3983593 33.9255,96.0773614 C33.9255,96.5080336 33.9255,97.1473546 34.0227,97.1848043 C34.2927,97.2784287 34.6005,97.6021016 34.7895,98.7416444 C34.8381,99.1883665 34.7463,99.8758371 34.803,100.033661 C34.8948,100.27976 34.9731,99.4478399 35.073,99.6939383 C35.073,96.3716095 34.9002,93.1750049 34.8624,89.8312763 C34.7868,89.2641799 34.7112,87.057319 34.6815,84.7488087 C34.6518,82.4402985 34.6572,80.0247889 34.6815,79.0403952 L34.6815,78.8611713 C34.7184246,77.7617649 34.6868647,76.6611487 34.587,75.5655924 C34.5195,75.1482951 34.4358,74.7202978 34.3548,74.2976505 C34.3008,74.4929242 34.2468,74.6748231 34.1955,74.8326471 C34.2237876,74.4902098 34.2138273,74.145725 34.1658,73.8054536 C34.047,72.8852595 33.8958,73.4042062 33.6663,73.754629 C33.5691,74.0060773 33.4314,73.6610046 33.3315,74.059577 L33.3531,73.3400066 C33.264,73.3052318 33.3855,74.2254259 33.2424,74.0248022 C33.2802,73.7573039 33.2424,73.438981 33.2424,73.1500828 C33.1209,73.2463822 33.1803,74.1451765 33.0642,74.0997017 C33.0372,73.9445527 33.237,73.2972069 33.0912,73.2356823 C33.0615,73.2356823 33.0534,73.5031806 33.048,73.6556546 C33.0183,72.7702352 32.886,72.2807134 32.7105,73.0858832 C32.7105,72.8183849 32.7888,72.4091125 32.7726,72.1121894 L32.7726,72.1121894 C32.7726,72.2593135 32.7321,72.5161119 32.7267,72.647186 L32.7429,72.1416143 C32.7213,72.1683641 32.7024,72.1977889 32.6808,72.2298887 C32.6592175,72.3564287 32.6456908,72.4841885 32.6403,72.6124112 L32.6403,72.2780384 C32.5865118,72.3694163 32.5387131,72.464128 32.4972,72.5615866 C32.3896644,72.8862166 32.3048631,73.2178101 32.2434,73.5540052 C32.157,75.3007691 32.0868,77.039508 32.0679,78.7942968 Z" id="Shape"></path>
                                        <path d="M5.7105,33.0627888 C5.6592,33.0815137 5.6808,33.2420127 5.5512,33.044064 C5.1543,32.415443 5.0895,31.7975219 4.7412,31.155526 L4.6386,31.155526 L4.3686,30.3316313 C4.2795,30.064133 4.185,29.7725599 4.1148,29.4836617 C3.9312,28.96739 3.7341,28.4564683 3.591,27.9375216 L3.3588,27.1591015 L3.1752,26.3753315 C3.1482,26.4101063 3.1239,26.4288312 3.0888,26.3245069 C2.96953631,25.7689286 2.88924429,25.2058356 2.8485,24.6392676 C2.8312781,24.5508028 2.81866143,24.4615187 2.8107,24.3717693 C2.80144165,24.3300197 2.77366451,24.2946371 2.7351,24.27547 C2.7351,23.9865718 2.7162,23.7404734 2.7135,23.4917 C2.4003,20.3726699 3.1185,17.0931408 4.4739,13.7199874 C4.71789861,12.9929705 4.9990618,12.2787191 5.3163,11.580001 C5.7996,10.5822324 6.5475,9.37581512 7.1064,8.45027103 C6.9282,8.45027103 7.1442,7.85374984 7.344,7.30270336 C7.5438,6.75165688 7.7301,6.23271019 7.4547,6.38250924 C7.8462,5.76726317 8.451,4.85776897 8.4105,4.76414457 C8.2863,4.48327137 8.3268,3.83860048 9.3231,2.14801128 C9.72,1.47926555 10.5138,0.601871156 10.6353,0.353097745 C10.8216,-0.0374497608 9.8928,1.03789337 10.0791,0.650020849 C8.36799919,2.89180426 6.805037,5.24088391 5.4,7.68255093 C4.698,8.89699318 4.0284,10.1248103 3.3885,11.3927522 C2.72910607,12.6834052 2.1387883,14.0075728 1.62,15.3597519 C1.4796,15.8412488 1.08,16.9995164 0.7263,18.5884563 C0.536971497,19.4708931 0.404404653,20.3643525 0.3294,21.2634392 C0.27,21.7422611 0.2943,22.2424829 0.27,22.7373548 C0.264832854,23.2552753 0.286461222,23.7731179 0.3348,24.2888449 C0.499327963,26.2686046 0.922253381,28.2188742 1.593,30.0908828 C2.05245693,31.3881786 2.58889194,32.6574412 3.1995,33.8920335 L3.3453,34.1595318 C4.19922483,35.8517142 5.20688408,37.4633562 6.3558,38.9745011 C6.8148,39.5282225 7.2954,40.079269 7.7814,40.6169406 C7.6329,40.3146675 7.4952,40.0311193 7.3845,39.7823459 C7.69520401,40.2766782 8.04076393,40.7486496 8.4186,41.1947369 C9.4338,42.3797543 9.045,41.5745845 8.8722,40.9700383 C8.6994,40.5687909 9.1422,40.9700383 8.8425,40.3574672 L9.5364,41.3472109 C9.639,41.3472109 8.6319,40.1621935 8.9478,40.3521173 C9.1881,40.7506897 9.5391,41.1412372 9.8145,41.5371347 C9.8145,41.333836 8.8749,40.1541685 9.018,40.1461436 C9.1854,40.3467673 9.6768,41.339186 9.8496,41.331161 C9.74053525,41.121935 9.61218964,40.9231411 9.4662,40.7373148 C10.368,41.9169823 10.9701,42.4921036 10.3005,41.3070862 C10.5705,41.6896087 10.9161,42.2620551 11.2266,42.6445776 L11.2266,42.6445776 C11.0835,42.4412789 10.8567,42.0774813 10.7217,41.8929074 L11.2158,42.5803781 C11.2158,42.5322284 11.1942,42.4787287 11.178,42.425229 C11.0673,42.2433302 10.9539,42.0641063 10.827,41.8902325 L11.1537,42.3476545 C11.1105,42.2058804 11.0511,42.0480565 10.9809,41.8822075 C10.6596,41.2883613 10.4031,40.6918401 10.1952,40.397592 C9.3852,39.1965247 8.5752,37.9901074 7.8246,36.7729901 C7.4358,36.165769 7.0875,35.545173 6.7203,34.9352769 C6.3531,34.3253808 6.021,33.7047847 5.7105,33.0627888 Z" id="Shape"></path>
                                        <path d="M46.8639,37.57281 C46.8099,37.57281 46.737,37.6985342 46.7424,37.4738357 C46.7748,36.7729901 47.0124,36.2353186 47.0367,35.545173 L46.953,35.4863234 L47.25,33.8438838 C47.3391,32.7926156 47.4093,31.7386723 47.4363,30.682054 C47.4039,30.7088039 47.3715,30.7195038 47.3661,30.6125045 C47.3661,30.1711323 47.4228,29.5639112 47.4444,28.9272653 L47.4444,28.659767 C47.4388629,28.6167111 47.4140775,28.5784041 47.3769,28.5554426 L47.3958,27.7743476 C47.2768995,26.1909315 47.0459316,24.61774 46.7046,23.0663777 C46.3349586,21.4564178 45.8485969,19.874967 45.2493,18.3343329 C44.9631,17.6709371 44.6229,17.0316162 44.3529,16.4003203 C44.1369,15.9375482 43.9317,15.3945267 43.6995,14.867555 C43.4673,14.3405834 43.2432,13.7975619 43.0083,13.3695646 C42.903,13.5086637 42.5439,13.0539166 42.1983,12.6553442 C41.8527,12.2567717 41.4963,11.906349 41.4774,12.1898971 L41.2074,11.7324751 L40.9158,11.2857529 C40.7322,11.0182546 40.5783,10.806931 40.527,10.809606 C40.2812855,10.7945233 40.0471988,10.7006295 39.8601,10.5421077 C39.3944111,10.1750193 38.9625175,9.76771639 38.5695,9.32499044 C38.4615,9.19926625 38.3481,9.05749215 38.2347,8.89966816 L37.8864,8.45294601 C37.7353842,8.23702002 37.566502,8.03391281 37.3815,7.84572489 C37.0818,7.62102633 37.7892,8.61611997 37.4895,8.38072148 C38.2526884,9.30923247 38.9681945,10.2752331 39.6333,11.275053 C39.9492,11.7806248 40.2867,12.2728216 40.5756,12.7944433 C40.7241,13.0619416 40.8807,13.305365 41.0211,13.5675133 L41.4396,14.3566333 C41.5854,14.6241316 41.7096,14.8916299 41.8365,15.1591282 C41.9634,15.4266265 42.1065,15.6941248 42.2172,15.9616231 C42.4494,16.5099946 42.6978,17.0556911 42.9003,17.6201125 C43.3334354,18.7484449 43.6941545,19.902772 43.9803,21.0761904 C44.2503,21.8546104 45.0063,25.0164402 44.9901,28.4056436 C44.9901,30.1015828 44.8659,31.8590465 44.7201,33.3784368 C44.5743,34.8978271 44.4069,36.1925188 44.307,36.9147642 L44.28,37.1822625 C44.0802,38.7872523 43.7697,40.6597403 43.4889,41.9169823 C43.387418,42.5134172 43.2522051,43.1037347 43.0839,43.685146 C43.2513,43.4550975 43.3944,43.2277239 43.524,43.0351251 L43.3512,43.4631224 L43.1757,43.84832 C43.0758,44.0917434 42.9786,44.2816672 42.9489,44.3993664 C42.8301,44.7096645 42.7491,44.8942383 42.7221,45.0039126 C42.6951,45.1135869 42.7221,45.1483617 42.7788,45.1323118 C42.9924437,45.0121221 43.1878753,44.8626288 43.3593,44.6882646 C43.6293,44.3913415 43.5024,44.9209881 43.8723,44.4207663 C43.659,44.8086388 43.5699,45.0119375 43.3323,45.3837601 C43.3539,45.4265599 43.5375,45.1349867 43.6698,44.8487636 C43.8021,44.5625404 43.9398,44.3298169 43.9398,44.4983408 C43.8225024,44.6893273 43.7161346,44.8866957 43.6212,45.089512 C43.5132,45.2928107 43.3971,45.4934344 43.2783,45.6833582 C43.4811132,45.4907044 43.648335,45.2643759 43.7724,45.0146125 C43.9533,44.7016395 44.1153,44.4100664 44.1504,44.463566 C44.0382981,44.682681 43.909211,44.8928517 43.7643,45.092187 C43.5996,45.3409604 43.4349,45.565659 43.4781,45.6432335 C43.6252785,45.4758688 43.7504742,45.290714 43.8507,45.092187 C43.6941,45.40516 43.5321,45.6726583 43.4241,45.8946819 C43.3265801,46.0509571 43.2417145,46.2146435 43.1703,46.3842038 C43.0947,46.5901774 43.2297,46.5366778 43.6806,46.039131 C43.5483,46.2263798 43.3701,46.4403784 43.1973,46.659727 C43.0245,46.8790756 42.8193,47.0796993 42.6573,47.2722981 L42.6573,47.2722981 C42.8139,47.0877243 43.1136,46.7908012 43.2486,46.6115773 C43.0812,46.8309259 42.8949,47.0368996 42.7086,47.2482232 L42.849,47.1759987 C43.0000448,47.0272951 43.1433312,46.8710512 43.2783,46.7078767 C43.1622,46.8523258 43.0407,46.9914249 42.9219,47.133199 C43.0461,47.0582995 43.1919,46.9620001 43.3323,46.8657007 C43.5672,46.6276272 43.8102,46.3949037 44.0073,46.1782301 C44.1720383,45.9980746 44.3227693,45.8058178 44.4582,45.6031087 C45.1841023,44.3566839 45.73374,43.0173731 46.0917,41.6227342 C46.4423242,40.2918534 46.7003306,38.9386987 46.8639,37.57281 L46.8639,37.57281 Z" id="Shape"></path>
                                    </g>
                                </g>
                            </g>
                        </g>
                        <ellipse id="Oval-8" stroke="#4A4A4A" cx="75.5" cy="75.5" rx="75.5" ry="75.5"></ellipse>
                    </g>
                    <text id="Support-Us" font-family="Raleway-Medium, Raleway" font-size="40" font-weight="400" letter-spacing="1.07000005" fill="#4A4A4A">
                        <tspan x="3.28999974" y="38">Support Us</tspan>
                    </text>
                    <text id="Every-dollar-makes-a" font-family="Raleway-Medium, Raleway" font-size="16" font-weight="400" line-spacing="34" letter-spacing="0.225000009" fill="#6B747D">
                        <tspan x="40.8064999" y="283">Every dollar makes </tspan>
                        <tspan x="66.6099999" y="317">a difference.</tspan>
                    </text>
                </g>
            </g>
        </g>
    </g>
</svg>