<?xml version="1.0" encoding="UTF-8" standalone="no"?>
<svg width="474px" height="77px" viewBox="0 0 474 77" version="1.1" xmlns="http://www.w3.org/2000/svg" xmlns:xlink="http://www.w3.org/1999/xlink">
    <!-- Generator: Sketch 42 (36781) - http://www.bohemiancoding.com/sketch -->
    <title>TRAINING_F_Youth</title>
    <desc>Created with Sketch.</desc>
    <defs></defs>
    <g id="Desktop" stroke="none" stroke-width="1" fill="none" fill-rule="evenodd">
        <g id="Training-Page---Core---1" transform="translate(-72.000000, -1250.000000)">
            <g id="TRAINING_F_Youth" transform="translate(72.000000, 1251.000000)">
                <rect id="Rectangle-26" fill="#C0DAE5" x="0" y="30" width="305.171875" height="35" rx="8"></rect>
                <text id="YOGA-TOOLS-FOR-YOUTH" font-family="Raleway-Medium, Raleway" font-size="26" font-weight="400" line-spacing="34" letter-spacing="0.449999988" fill="#4A4A4A">
                    <tspan x="132" y="45">YOGA TOOLS FOR YOUTH™</tspan>
                </text>
                <g id="second-icon" transform="translate(24.000000, 0.000000)">
                    <g id="Icon-2" transform="translate(12.417219, 17.384106)" fill="#4A4A4A">
                        <g id="Group-5">
                            <g id="Icon-2">
                                <g id="Asset-2">
                                    <g id="Layer_2">
                                        <g id="Layer_1-2">
                                            <path d="M18.9147254,7.6393672 C18.9380405,7.63105709 18.8950915,7.50640541 19.0067589,7.67735628 C19.1687451,7.92381959 19.3611854,8.15025869 19.5798208,8.35166251 C19.7875038,8.54568562 20.0261744,8.70603249 20.2866381,8.82652605 L20.3430853,8.80990583 C20.7369544,9.01497215 21.1473316,9.18886493 21.5701987,9.3298814 C22.3633094,9.55786388 23.1820137,9.69219705 24.0084729,9.72995394 C23.987612,9.71452087 23.9790222,9.70146212 24.0600117,9.70027496 C24.3999221,9.71095939 24.8711336,9.73114109 25.3607519,9.70027496 C25.4331515,9.69315201 25.5043241,9.68840338 25.5754967,9.67890611 C25.6045813,9.67580657 25.6315639,9.66275458 25.6515777,9.64210418 C25.8700039,9.62548396 26.0675691,9.60530226 26.2651344,9.57681044 C26.6001953,9.51413371 26.9225833,9.39947964 27.2198286,9.23728301 C27.5053141,9.07256778 27.7655373,8.86996866 27.99291,8.63539348 C28.2019366,8.42013193 28.3989629,8.19425176 28.5831515,7.95871293 C28.7672185,7.72840411 28.9512855,7.48384939 29.1108103,7.23573319 C29.462742,6.72129579 29.7232143,6.15351261 29.8814375,5.55590342 C30.0374451,4.93319116 30.0520977,4.28516579 29.9243864,3.65644926 C29.7992892,3.14259879 29.5984401,2.64882874 29.3280093,2.19030808 C29.1280768,1.82454503 28.8851338,1.48235322 28.6040125,1.17053863 C28.3225209,0.862424409 27.9993262,0.592480662 27.6431827,0.368019244 C27.6493183,0.411944121 27.5511492,0.389388103 27.4075769,0.339527431 C27.3376315,0.312222778 27.2505064,0.287292442 27.1621543,0.258800629 C27.0738021,0.230308817 26.9768601,0.19588121 26.8799182,0.17569951 L26.6062719,0.11396725 C26.520374,0.100908502 26.4442929,0.0937855492 26.3853915,0.0902240726 C26.2626802,0.0902240726 26.2185041,0.102095661 26.2921309,0.159079286 C26.1792365,0.121090203 26.0467082,0.100908502 25.9166342,0.0700423722 C25.7865602,0.0391762421 25.6466693,0.032053289 25.5239579,0.0142459062 C25.2785353,-0.0023743177 25.0932411,-0.0071229531 25.0748344,0.0142459062 C25.034575,0.0523740755 24.9870722,0.0826083756 24.9349435,0.10328282 C24.8674523,0.132961791 24.7754188,0.160266445 24.6502532,0.199442687 C24.5876704,0.218437228 24.517725,0.235057452 24.4379626,0.255239153 C24.3582002,0.275420853 24.2710752,0.303912666 24.1729061,0.328843002 C24.074737,0.353773337 23.9692053,0.392949579 23.8514024,0.425002868 C23.7335995,0.457056157 23.6059797,0.510478306 23.4697702,0.556777501 C23.3642384,0.600702378 23.2403,0.637504303 23.1175886,0.687364974 C22.9948773,0.737225646 22.872166,0.783524841 22.7568173,0.842882784 C22.59062,0.917096729 22.4330693,1.00823091 22.2868329,1.11474216 C22.234067,1.16222851 22.245111,1.16697715 22.2868329,1.15035693 C22.3285547,1.1337367 22.3948189,1.10761921 22.4623101,1.07675308 C22.5936112,1.01383366 22.732275,0.967534463 22.634106,1.04113831 C24.0661473,0.2481162 25.9657187,0.262362106 27.2971367,1.1194908 C28.6224192,1.95762494 29.3832295,3.71818152 28.967238,5.23893201 C28.9255162,5.49773264 28.7132256,6.14235989 28.1352552,6.9009544 C27.99291,7.09089981 27.830931,7.28915534 27.6529996,7.49453382 C27.4824112,7.69632038 27.2961683,7.88523041 27.0958901,8.05962143 C26.9130283,8.22100536 26.7002728,8.34748299 26.4688352,8.43238931 C26.2022833,8.51639216 25.9262372,8.5690066 25.6466693,8.58909428 C25.0288938,8.65228075 24.4061763,8.65625727 23.7875925,8.60096587 C23.206142,8.54819759 22.6310171,8.44327665 22.0696338,8.28755593 C21.8070316,8.2163264 21.5567004,8.13203812 21.3272302,8.05012416 C21.1212673,7.97553488 20.9211371,7.88666286 20.7283989,7.78420058 C20.4667361,7.65227436 20.2396735,7.46427624 20.0645306,7.23454603 C20.0346713,7.19635595 20.0068214,7.15673369 19.9810869,7.11583015 C19.7516167,6.74306227 19.6828983,6.18747193 19.7577522,5.62950727 C19.7928474,5.35283834 19.8507053,5.07931959 19.9307752,4.81155482 C20.004402,4.54444408 20.0952084,4.29751504 20.1761979,4.07314201 C20.3233277,3.65305866 20.5029958,3.24430831 20.7136735,2.8503684 C20.5799182,3.01300916 20.4596611,3.16971413 20.3565836,3.3062374 C20.5823724,2.90260339 20.8547916,2.52864835 20.9431437,2.37313054 C21.2204714,1.96356074 21.2781457,1.86858803 21.2045189,1.898267 C21.0564168,1.98903497 20.917541,2.09317924 20.7897546,2.20930262 C20.588508,2.41230678 20.761531,2.0656564 20.4645695,2.40280951 C20.6199213,2.18312248 20.7866108,1.971144 20.9640047,1.76767953 C20.9640047,1.74037487 20.8020257,1.93388177 20.6670432,2.11432991 C20.5320608,2.29477806 20.4216206,2.4609803 20.4535255,2.35176168 C20.6461823,2.1060198 20.8449747,1.8175402 21.0670822,1.57535979 C20.9113719,1.70460392 20.7725047,1.85170657 20.653545,2.01342141 L20.437573,2.28528079 C20.3823529,2.35651032 20.3443124,2.39687372 20.3406311,2.37906634 C20.4429991,2.23346189 20.5553265,2.09464974 20.6768601,1.96356074 C20.8179782,1.79973282 20.9554149,1.65252512 20.9505064,1.60741308 C20.8339933,1.7172377 20.727265,1.83637605 20.631457,1.96356074 C20.9357811,1.56111389 21.1959291,1.26432418 21.2842813,1.13848534 C21.3726334,1.0126465 21.2781457,1.04826126 20.9296455,1.36998131 C21.1492988,1.13254954 21.5014803,0.825075401 21.7604012,0.595953743 L21.7604012,0.595953743 L21.5149786,0.801332224 C21.4278535,0.878497549 21.3419556,0.953288557 21.2842813,1.00908502 C21.4266264,0.873748914 21.5714258,0.740787123 21.7223607,0.613761126 L21.6266459,0.662434638 C21.5039346,0.752658711 21.3971757,0.850005737 21.2842813,0.955662874 C21.3812232,0.867813119 21.4744838,0.775214729 21.5751071,0.689739292 C21.4694501,0.745175521 21.367035,0.806209094 21.2683288,0.872561755 C20.951236,1.11196535 20.6582849,1.37987582 20.393397,1.67270682 C19.7294664,2.474929 19.215741,3.38334769 18.8754577,4.35687298 C18.6897391,4.86189214 18.5794153,5.38995389 18.5478185,5.92510982 C18.5328284,6.21078439 18.551768,6.49717959 18.6042657,6.77867703 C18.6597442,7.07973035 18.7645498,7.37028391 18.9147254,7.6393672 L18.9147254,7.6393672 Z" id="Shape"></path>
                                            <path d="M18.2459486,21.187224 C18.2668095,21.2014699 18.3527074,21.0542622 18.2655824,21.3000041 C18.1293728,21.6870179 17.979665,22.0265453 17.8360927,22.3684471 C17.6925205,22.7103488 17.5489482,23.0522506 17.427464,23.4452001 L17.4458707,23.5140553 C17.3354305,23.8120322 17.2151734,24.1076348 17.1047332,24.4246062 L17.0176081,24.662038 L16.8605376,25.1190941 L16.7010129,25.5844604 C16.8347682,25.6687487 16.9881574,25.7447268 17.1329568,25.8218922 L17.7833268,26.1637939 L18.2054538,26.3822311 C18.4868718,26.5270645 18.770335,26.6699193 19.0558434,26.8107955 C19.6264511,27.090965 20.2068757,27.3592629 20.7983444,27.6061919 C20.7738021,27.5800744 20.7639852,27.562267 20.8842423,27.6061919 C21.3750877,27.8032603 22.0622711,28.0917399 22.8046747,28.3184872 L23.1347682,28.4098984 C23.1774467,28.4204007 23.2221637,28.4204007 23.2648422,28.4098984 C23.4341839,28.4561976 23.5937086,28.5013097 23.7483249,28.5369244 C23.9029412,28.5725392 24.0489677,28.6117154 24.1925399,28.6402073 C25.1454326,28.8173534 26.117711,28.8767905 27.0860732,28.8170939 C28.0790074,28.7575072 29.0538018,28.5321861 29.9673354,28.1510978 C30.4355182,27.960274 30.8797289,27.7185162 31.2913907,27.4304924 C31.7030309,27.1330235 32.0792029,26.7921931 32.4129723,26.4142844 C32.7526605,26.0321554 33.0412573,25.6101644 33.2719517,25.1582704 C33.508998,24.6995325 33.6795363,24.2113669 33.7787495,23.7075622 C33.920991,22.8547204 33.8291655,21.9806923 33.5124659,21.1729781 C33.2764287,20.5502349 32.9544644,19.9612158 32.5553175,19.4219188 C32.1691765,18.8953169 31.7469176,18.394396 31.2913907,17.9225372 C31.3196143,18.1350386 29.2470199,16.1596063 29.5476626,16.6594001 C28.9966887,16.1038098 28.1696143,15.2704243 28.0984418,15.2538041 C27.8836969,15.2063177 27.3621737,14.8727261 25.8380989,13.4516969 C25.2515388,12.8877965 24.4048305,11.9701227 24.1839501,11.7896745 C23.8366771,11.4964463 24.8686794,12.5921939 24.5214063,12.2989657 L27.689813,15.492423 L29.2678808,17.0713443 C29.7930853,17.5984428 30.3281067,18.1184184 30.8250877,18.6395811 C31.3158419,19.143037 31.7593492,19.6877135 32.1503701,20.2671759 C32.335968,20.5472494 32.4960934,20.8423761 32.6289443,21.1492349 C32.6976626,21.2988169 32.7516556,21.4543347 32.8019673,21.6074782 C32.8478222,21.7618272 32.8855027,21.9183401 32.9148617,22.076406 L32.9381769,22.1951219 C32.9381769,22.2342981 32.9455395,22.2734743 32.950448,22.3138377 L32.9749903,22.5512695 L32.9749903,22.9074172 L32.9639462,23.0261331 L32.9418582,23.2635648 L32.8976821,23.5009966 C32.8903194,23.5401728 32.8841839,23.5805362 32.874367,23.6197125 L32.8412349,23.7384284 C32.8191469,23.8167809 32.7995131,23.8963205 32.7749708,23.9758601 C32.5595474,24.6096456 32.2172136,25.1961822 31.7675107,25.7019891 C31.0964637,26.5019616 30.2020189,27.0986217 29.1905727,27.4209951 C28.3685859,27.6913868 27.5063803,27.8297405 26.6381769,27.8305649 C25.6464296,27.8315951 24.6590836,27.7030107 23.7029217,27.4482998 C21.7149981,26.9354472 19.8043825,25.947731 18.1649591,25.0834793 L18.1220101,25.0609233 L18.1011492,25.0502389 C18.1026494,25.0429799 18.1047001,25.0358376 18.1072848,25.02887 L18.2115894,24.7118986 C18.3343007,24.3225105 18.4717374,23.9604271 18.5870861,23.6220868 L18.9257694,22.704413 L19.2067783,21.9849947 L19.3196728,21.6870179 C19.6779899,20.7978359 20.0915271,19.819617 20.5087456,18.8829487 C20.9259642,17.9462803 21.3517725,17.0523497 21.6990456,16.3163112 L22.1776198,15.2941675 C22.3445072,14.95464 22.5064862,14.6115511 22.6770549,14.2732109 L22.1493962,15.0828532 C22.5175302,14.4049855 22.9114336,13.7389894 23.0365991,13.4695043 C23.8268601,12.0259192 23.2893845,12.7916366 22.8795286,13.2914305 C22.6120179,13.6665727 22.8660304,13.1002979 22.4708999,13.7010003 C22.7273666,13.2522542 22.8648033,13.0326299 23.132314,12.5862581 C23.132314,12.5506434 22.9298403,12.8961066 22.7470004,13.2083294 C22.5641605,13.5205521 22.4058629,13.8019088 22.4659914,13.6309579 C22.5960654,13.4172693 22.7261395,13.1881477 22.8611219,12.9578388 C22.9961044,12.72753 23.1249513,12.4912854 23.2636151,12.271661 C23.0711293,12.527464 22.8960985,12.7951431 22.7396377,13.0729933 C22.5212115,13.4291409 22.331009,13.7615454 22.3261005,13.714059 C22.4488118,13.4623814 23.1274055,12.4924726 23.12127,12.3737567 C23.12127,12.3500135 22.8525321,12.7951981 22.7187768,13.018384 C23.1151344,12.323896 23.4292754,11.7896745 23.5298987,11.5736116 C23.630522,11.3575487 23.5298987,11.4632059 23.1102259,12.0674697 C23.2452084,11.852594 23.4108687,11.5926062 23.5826646,11.3349927 C23.7544605,11.0773792 23.9299377,10.8150171 24.0735099,10.5870826 L24.0735099,10.5870826 L23.5237631,11.4026608 L24.0219712,10.634569 L23.911531,10.7532849 C23.781457,10.940856 23.6513829,11.1296142 23.522536,11.3302441 L23.8538566,10.8197658 C23.7532333,10.9384816 23.641566,11.0726306 23.5200818,11.2245869 C23.0967277,11.8181664 22.6807363,12.3749439 22.4819439,12.712097 C20.8345027,15.4212219 19.417823,18.2556303 18.2459486,21.187224 L18.2459486,21.187224 Z" id="Shape"></path>
                                            <path d="M16.3696922,9.8320496 C16.3696922,9.85579277 16.4310479,9.88784606 16.3206077,9.88547175 C15.9721075,9.86529005 15.707051,9.7513228 15.3573237,9.73114109 L15.327873,9.76675586 C15.0628165,9.71808235 14.786716,9.66228588 14.5057071,9.60886373 C13.9813206,9.55029723 13.4593884,9.4952922 12.9399104,9.44384865 C12.9509544,9.45928172 12.9558629,9.47352762 12.9043241,9.47234047 C12.687125,9.45572024 12.3901636,9.40585957 12.080931,9.36312185 L11.9434944,9.35243742 C11.9227831,9.35237456 11.9030708,9.36104294 11.8895014,9.3761806 C11.7496104,9.35718606 11.625672,9.33819152 11.5115504,9.32038413 C9.9825672,9.2087912 8.42781457,9.1078827 6.74421504,8.99035397 C6.38589794,8.98204386 6.02758083,8.97373375 5.68521621,8.94880341 C5.17841839,8.90131706 4.53786521,8.79684708 4.04579275,8.73155334 C4.10346708,8.87638672 2.89476042,8.79565992 3.11564083,8.96186216 C2.78800156,8.91912444 2.2959291,8.8538307 2.26525127,8.88825831 C2.17444488,8.99391545 1.90447994,9.09601111 1.02341254,9.05802203 C0.679820802,9.03190453 0.16443319,8.91912444 0.0417218543,8.92743455 C-0.155843397,8.94524194 0.468757304,9.06395782 0.274873393,9.07939089 C2.80395403,9.43553854 5.25081808,9.68365474 7.80198675,9.99825184 C8.6781457,10.044551 14.5412933,10.7402261 16.042053,10.9479789 L16.1794897,10.963412 C16.9992014,11.0714434 17.9980717,11.1842235 18.6999805,11.2186511 C19.0227113,11.2257741 19.3515777,11.2269612 19.6816712,11.2293356 C19.5344176,11.1889722 19.398208,11.1486088 19.2816323,11.1106197 C19.5413618,11.1531345 19.8037234,11.178913 20.0669848,11.187785 C20.7738021,11.2162768 20.3872614,11.0987481 20.1295676,10.9729093 C19.9418192,10.9088027 20.2117842,10.8791237 19.9135956,10.8007712 L20.4596611,10.8731879 C20.4903389,10.8375731 19.7835216,10.8102685 19.9430464,10.7651565 C20.1516556,10.8055199 20.3909427,10.8114556 20.6081418,10.8399475 C20.5394235,10.7782152 19.8534671,10.7212316 19.8939618,10.679681 C20.0166732,10.679681 20.4989287,10.8257016 20.5504675,10.7663436 C20.4464891,10.7387192 20.340097,10.7204385 20.2326451,10.7117343 C20.9087846,10.7746537 21.2879626,10.7592207 20.6817686,10.6143873 C20.8952863,10.6428791 21.1934749,10.7069857 21.4180366,10.7259802 L21.4180366,10.7259802 C21.3051422,10.7105471 21.1137125,10.6725581 21.0094079,10.6594993 L21.3934944,10.7105471 L21.3296845,10.6761195 C21.2351967,10.6559378 21.1394819,10.6381305 21.0400857,10.6250717 L21.2953253,10.6583122 C21.2339696,10.6298203 21.1640242,10.6001414 21.0854889,10.5716496 C20.7873004,10.4932971 20.5050643,10.3971372 20.3418582,10.3745812 C19.0202571,10.1846358 17.6925205,9.999439 16.3696922,9.8320496 Z" id="Shape"></path>
                                            <path d="M30.2520257,11.6828302 C30.2520257,11.6590871 30.1980327,11.6377182 30.2790222,11.6222851 C30.5342618,11.5831089 30.7465524,11.650777 31.001792,11.6116007 L31.0177444,11.5712373 L31.6398909,11.5878575 C32.0292949,11.5577828 32.4166537,11.523751 32.8019673,11.4857619 C32.7909233,11.4727031 32.7847877,11.4596444 32.8228282,11.4525214 C32.9823529,11.4323397 33.2056876,11.4311526 33.4363849,11.4204681 L33.5370082,11.4074094 C33.5533558,11.4026241 33.5664946,11.3907898 33.5725945,11.3753561 C33.6768991,11.3753561 33.7701597,11.3682331 33.8560577,11.367046 L37.3656019,10.8921825 C37.626977,10.8399475 37.887125,10.7877125 38.1399104,10.754472 C38.5154071,10.7152958 38.9988898,10.7105471 39.3670238,10.6915526 C39.3019868,10.5585908 40.1904168,10.4351263 40.0026685,10.3081003 C40.2480912,10.2950415 40.6162252,10.2772342 40.6309505,10.2368708 C40.6750637,10.1505384 40.7500594,10.0826246 40.842014,10.0457382 C40.9647254,9.97925729 41.165972,9.91871219 41.3807168,9.82255233 C41.4575453,9.79689676 41.532212,9.76554176 41.6040514,9.72876678 C41.6568173,9.70027496 41.6825867,9.66822168 41.6825867,9.64922713 C41.6825867,9.63023259 41.6825867,9.61242521 41.6617257,9.62548396 C41.6408648,9.6385427 41.6298208,9.63260691 41.6138683,9.6385427 C41.5979159,9.6444785 41.5525127,9.6385427 41.5525127,9.61598669 C41.4587039,9.67854004 41.3511693,9.71917803 41.2383716,9.73470257 C41.1470502,9.75126711 41.0548884,9.76315525 40.9622711,9.77031734 L40.8064277,9.78100177 L40.6334048,9.7916862 L39.2406311,9.88547175 C38.3129334,9.95195264 37.3840086,10.0231822 36.4342228,10.0825401 C35.7912154,10.1846358 31.4288274,10.4885484 30.3060187,10.5324733 L30.2041683,10.5407834 C29.5789481,10.5674765 28.9555657,10.6253283 28.3365018,10.7141086 C28.100896,10.761595 27.862836,10.8162043 27.624776,10.8684393 C27.7376704,10.8838723 27.8432022,10.8993054 27.9340086,10.9159256 C27.7387911,10.9176782 27.5441287,10.9363517 27.3523568,10.9717221 C26.8357421,11.0631333 27.1351578,11.112994 27.3413128,11.1925336 C27.4885664,11.2245869 27.2971367,11.2993779 27.5266069,11.3254954 L27.1192053,11.3468643 C27.1032528,11.3872277 27.6198675,11.2946293 27.5106545,11.3658588 C27.3523568,11.3658588 27.1793339,11.3955378 27.0198091,11.4038479 C27.0799377,11.4525214 27.5855084,11.3872277 27.5634203,11.4406498 C27.4762953,11.4584572 27.1007986,11.3990993 27.072575,11.4655802 C27.1540505,11.4756646 27.2365222,11.4756646 27.3179977,11.4655802 C26.8173354,11.5178152 26.5461434,11.5961676 27.0087651,11.6377182 C26.8492404,11.6460283 26.6234515,11.6377182 26.455337,11.6519641 L26.455337,11.6519641 L26.7621153,11.6519641 L26.4761979,11.66621 L26.5277367,11.6899532 C26.6004978,11.6935543 26.6734017,11.6935543 26.7461628,11.6899532 L26.5559603,11.6994505 C26.6101887,11.7190106 26.6654931,11.7356562 26.7216206,11.7493111 C26.9107545,11.7823207 27.1016735,11.8049131 27.2934554,11.8169792 C28.273919,11.7825516 29.2666537,11.741001 30.2520257,11.6828302 Z" id="Shape"></path>
                                            <path d="M32.9590378,33.3567894 C32.9749903,33.338982 32.9590378,33.2950571 33.0167121,33.3247361 C33.199552,33.4280189 33.2793144,33.5942211 33.4597,33.7010654 L33.4965134,33.6796966 C33.6192248,33.7889152 33.7345734,33.9064439 33.8560577,34.026347 L34.6045968,34.5878731 C34.6045968,34.57244 34.6131866,34.5593813 34.6401831,34.5748144 C34.7481691,34.6484182 34.8782431,34.7706956 35.0193611,34.8917858 L35.0868524,34.9392721 C35.100409,34.9456531 35.1162447,34.9456531 35.1298013,34.9392721 C35.1936112,34.9938814 35.2525127,35.0449293 35.299143,35.0924156 C36.0513635,35.618327 36.8109466,36.1608586 37.6097974,36.7888656 C37.788956,36.9075815 37.9693416,37.0262974 38.1300935,37.1616335 C38.3607908,37.3610762 38.6209388,37.6543044 38.8246397,37.8656187 C38.8945851,37.7374055 39.4529217,38.2087076 39.4553759,38.0116392 C39.5940397,38.1540983 39.7952863,38.3749098 39.834554,38.3594768 C39.9572653,38.3155519 40.1646474,38.3321721 40.5794118,38.6764482 C40.7328009,38.8189072 40.9107324,39.0872051 40.9794507,39.1251942 C41.0862096,39.1857393 40.8567394,38.8723294 40.9671796,38.9328745 C40.462836,38.3392951 39.932723,37.7967635 39.3903389,37.2589805 C38.8479548,36.7211976 38.2859369,36.2035963 37.7042852,35.6764978 C37.485859,35.5186056 36.706642,34.8454866 35.8636151,34.1640574 C35.0205882,33.4826282 34.1211141,32.8000119 33.7591157,32.5139066 L33.6903974,32.4652331 C33.4879236,32.3144639 33.2633619,32.1482617 33.037573,31.9986796 C32.8117842,31.8490976 32.5896767,31.7125744 32.398247,31.6116659 C32.2068173,31.5107574 32.030113,31.4478379 31.8423646,31.3682983 C31.9049474,31.4383407 31.965076,31.5048216 32.0104792,31.5641795 C31.8844022,31.4654673 31.7473467,31.3806556 31.6018504,31.3113147 C31.2091741,31.1249307 31.3723802,31.3113147 31.4558239,31.4810784 C31.5306778,31.5796126 31.3613362,31.5428106 31.4901831,31.6793339 C31.3821971,31.6021686 31.3257499,31.5665538 31.2153097,31.4917628 C31.1809505,31.5143188 31.5687183,31.7007028 31.4545968,31.7030771 C31.3450975,31.6250144 31.2312104,31.5528829 31.1134593,31.4870142 C31.1220491,31.5558694 31.4815933,31.7553121 31.4386443,31.7885525 C31.3736073,31.7564992 31.1686794,31.5250033 31.109778,31.5641795 C31.0975068,31.5724896 31.207947,31.6460935 31.2631671,31.6828954 C30.9097585,31.4751426 30.6864238,31.4039131 30.9576159,31.6662752 C30.850857,31.5938585 30.7121932,31.4715811 30.5894819,31.4039131 L30.5894819,31.4039131 C30.644702,31.4430893 30.7355084,31.5226289 30.7882743,31.5534951 L30.5956175,31.4229076 C30.5956175,31.4371535 30.6066615,31.4525866 30.6140242,31.4680196 C30.657857,31.5071754 30.7041679,31.5436522 30.752688,31.5772383 L30.6299766,31.4905757 C30.6523827,31.5315981 30.6773814,31.5712452 30.7048305,31.6092915 C30.8040001,31.7282033 30.911416,31.840451 31.0263342,31.9452575 C31.6779314,32.4094366 32.322166,32.8807387 32.9590378,33.3567894 Z" id="Shape"></path>
                                            <path d="M22.1383522,32.9187278 C22.1628944,32.9187278 22.1898909,32.8807387 22.1984807,32.9460324 C22.211979,33.1502237 22.1199455,33.309303 22.1322166,33.5134943 L22.1714842,33.5301146 L22.0868134,34.0156625 C22.0753603,34.3243238 22.0675886,34.6314023 22.0634982,34.9368978 C22.0782236,34.9297748 22.0917219,34.9262134 22.0954032,34.9570795 C22.0954032,35.0841055 22.0745423,35.259805 22.0598169,35.4414403 L22.0598169,35.5221671 C22.0643033,35.5362354 22.0751307,35.5475831 22.0892676,35.5530332 C22.0831321,35.6349472 22.0745423,35.7085511 22.0659525,35.7762191 L22.146942,38.577914 C22.16903,38.7880411 22.191118,38.9993554 22.1935723,39.2011724 C22.1935723,39.4991493 22.1334437,39.8766658 22.1064472,40.1663325 C22.2512466,40.1319049 22.265972,40.8430131 22.4193611,40.7124256 C22.4021815,40.9059325 22.3739579,41.1955993 22.4119984,41.2134066 C22.5273471,41.2668288 22.6574211,41.4259081 22.6844176,41.9458837 C22.6844176,42.1477007 22.6095637,42.4528005 22.6267433,42.5252172 C22.656194,42.6439331 22.732275,42.2711652 22.7617257,42.3863196 C22.9286132,40.8952481 22.9862875,39.4516629 23.089365,37.9451583 C23.0758668,37.6863577 23.1200429,36.6927057 23.1703545,35.6515674 C23.2206661,34.6104291 23.2795676,33.5241788 23.316381,33.0801814 L23.316381,32.9994546 C23.3546229,32.5044513 23.3595417,32.0075656 23.3311063,31.5119445 C23.3065641,31.3219991 23.2746591,31.1296794 23.2439813,30.9373596 C23.2169848,31.0252094 23.1899883,31.1059362 23.1642189,31.1747914 C23.1817576,31.0209271 23.1817576,30.8656637 23.1642189,30.7117995 C23.12127,30.2962939 23.0415076,30.5277898 22.937203,30.6821205 C22.8905727,30.7949006 22.8328983,30.6381956 22.7813596,30.8150823 L22.7997663,30.4921751 C22.7604986,30.4755548 22.7997663,30.8898733 22.7420919,30.7984621 C22.7629529,30.6797462 22.7420919,30.5349128 22.7519088,30.4066996 C22.6954616,30.4494373 22.7126412,30.8530714 22.6598753,30.8305153 C22.6512855,30.760473 22.7482275,30.4743677 22.6819634,30.4435016 C22.6684651,30.4435016 22.6611025,30.5622174 22.6574211,30.6310727 C22.6574211,30.2333744 22.5997468,30.0125629 22.5113946,30.3710849 C22.5187573,30.245246 22.5543436,30.0683594 22.5506623,29.9353976 L22.5506623,29.9353976 C22.5506623,30.0018785 22.5273471,30.1158457 22.5236658,30.1728293 L22.537164,29.946082 C22.5273471,29.9579536 22.5175302,29.9710123 22.5077133,29.9840711 C22.4962769,30.0405306 22.4884901,30.0976249 22.4843981,30.155022 L22.4929879,30.0042528 C22.4677538,30.0447712 22.4452111,30.0868024 22.4254967,30.1300916 C22.3742689,30.2744311 22.3332701,30.4219807 22.3027854,30.5717147 C22.2402026,31.358801 22.1825282,32.1399516 22.1383522,32.9187278 Z" id="Shape"></path>
                                        </g>
                                    </g>
                                </g>
                            </g>
                        </g>
                    </g>
                    <circle id="Oval-8" stroke="#4A4A4A" cx="37.5" cy="37.5" r="37.5"></circle>
                </g>
            </g>
        </g>
    </g>
</svg>