<?xml version="1.0" encoding="UTF-8" standalone="no"?>
<svg width="587px" height="77px" viewBox="0 0 587 77" version="1.1" xmlns="http://www.w3.org/2000/svg" xmlns:xlink="http://www.w3.org/1999/xlink">
    <!-- Generator: Sketch 42 (36781) - http://www.bohemiancoding.com/sketch -->
    <title>TRAINING-Yoga</title>
    <desc>Created with Sketch.</desc>
    <defs></defs>
    <g id="Desktop" stroke="none" stroke-width="1" fill="none" fill-rule="evenodd">
        <g id="Training-Page---Core---1" transform="translate(-72.000000, -972.000000)">
            <g id="TRAINING-Yoga" transform="translate(72.000000, 973.000000)">
                <rect id="Rectangle-26" fill="#CBE8EA" x="0" y="30" width="305.171875" height="35" rx="8"></rect>
                <text id="YOGA-OUTREACH-CORE-T" font-family="Raleway-Medium, Raleway" font-size="26" font-weight="400" line-spacing="34" letter-spacing="0.449999988" fill="#4A4A4A">
                    <tspan x="132" y="45">YOGA OUTREACH CORE TRAINING™</tspan>
                </text>
                <g id="first-icon" transform="translate(24.000000, 0.000000)">
                    <circle id="Oval-8" stroke="#4A4A4A" cx="37.5" cy="37.5" r="37.5"></circle>
                    <g id="Group-6" transform="translate(18.874172, 19.370861)" fill="#4A4A4A">
                        <g id="Icon-1">
                            <g id="Asset-1">
                                <g id="Layer_2">
                                    <g id="Layer_1-2">
                                        <path d="M11.7964285,7.93827982 C11.8255726,7.93827982 11.8311238,7.78650663 11.8783096,8.01687665 C11.9422999,8.36159286 12.035132,8.7006049 12.1558726,9.03050473 C12.2771741,9.35856417 12.4499356,9.66623115 12.6679764,9.94249898 L12.7359793,9.9587604 C13.0771728,10.4334864 13.4898453,10.8551674 13.9600322,11.2095341 C14.8632392,11.8214283 15.9018235,12.2161159 16.9910204,12.3613842 C16.9660398,12.3410574 16.9549372,12.324796 17.061799,12.3329267 C17.6245097,12.4087223 18.1935932,12.4291515 18.7604847,12.393907 L19.0380477,12.3586739 C19.1088263,12.3424125 19.1254801,12.324796 19.1365826,12.3139551 L19.5418246,12.255685 L19.90682,12.1852189 C20.6663186,11.9858027 21.38797,11.668253 22.0440553,11.2447671 C22.6993234,10.8194848 23.2854988,10.300565 23.7829876,9.70535338 C24.288489,9.10478955 24.7017649,8.43557209 25.0098162,7.71875074 C25.3382929,6.98173169 25.5291152,6.19328597 25.5732691,5.39065844 C25.5730002,5.03577171 25.5173101,4.68300003 25.4081191,4.34450753 C25.3021447,4.02375749 25.1626274,3.71451497 24.9917746,3.42167234 C24.9320985,3.31597315 24.8696468,3.20756373 24.8016439,3.09915431 L24.5809813,2.77392605 C24.4287052,2.54915096 24.2642463,2.33247539 24.0883069,2.12482464 C24.005038,2.01641522 23.9023397,1.9229121 23.8107439,1.82263338 C23.7191481,1.72235467 23.6289401,1.62072084 23.5331809,1.53534842 L23.2431275,1.27652093 C23.1959418,1.23451228 23.1501439,1.19250363 23.104346,1.15320521 L22.9655645,1.04479579 C22.9725036,1.15049498 22.511749,0.863210011 22.0551578,0.668073054 C21.5985666,0.472936097 21.1683439,0.336069204 21.3334939,0.504103806 C20.7908582,0.233080254 19.9165347,-0.0379432972 19.8568587,0.00677558879 C19.7947506,0.0367799149 19.7274385,0.0551648708 19.6584011,0.0609802991 C19.6126032,0.0609802991 19.5584784,0.0691110056 19.4946389,0.0718212411 C19.4307994,0.0745314766 19.3558574,0.0813070654 19.2739763,0.0826621832 C19.1074385,0.0826621832 18.900654,0.0704661234 18.6369692,0.0826621832 C18.5051267,0.0826621832 18.3594061,0.0731763589 18.2011952,0.0826621832 L17.6766011,0.107054303 C17.5281049,0.12060548 17.3601793,0.131446422 17.1880902,0.139577129 C17.0160011,0.147707836 16.8425242,0.181585779 16.678762,0.197847193 L16.5580221,0.21139837 C16.5191633,0.21139837 16.4816923,0.227659783 16.4456091,0.234435372 L16.2374368,0.276444022 C16.1483024,0.294709056 16.0602725,0.317781405 15.973752,0.345555028 C15.8904831,0.38078809 15.9015856,0.388918796 15.958486,0.384853443 C16.0153864,0.38078809 16.10837,0.372657383 16.2055171,0.361816441 C16.3970356,0.341489675 16.5830028,0.319807791 16.431731,0.378077854 C18.5495368,-0.0420086505 20.8324927,0.562373869 22.4992586,1.86870739 L22.8004145,2.12753488 L22.9502985,2.26304665 L23.0890801,2.39855843 C23.179288,2.49341667 23.2764351,2.58420956 23.3666431,2.68177804 L23.6164498,2.98532442 C23.6999255,3.08623938 23.7768676,3.19214455 23.8468271,3.30242197 C23.9189935,3.41218651 23.9994868,3.51517546 24.0647141,3.62900535 C24.1959606,3.8450405 24.3078638,4.07173493 24.3991775,4.30656423 C24.4831394,4.52077198 24.5372847,4.74501214 24.5601641,4.97328217 C24.5796685,5.20976446 24.5703512,5.44767156 24.5324078,5.68200876 C24.4925895,5.93839791 24.4317936,6.19125911 24.350604,6.43816446 C24.3117452,6.56554553 24.2701107,6.6929266 24.2201494,6.81624232 L24.147983,7.00324857 L24.0661019,7.18754458 C23.9521642,7.46860573 23.8157366,7.74046961 23.6580843,8.00061524 C23.3974177,8.44120002 23.0848879,8.85051424 22.7268603,9.22022122 C22.2744387,9.69133853 21.7512635,10.0925241 21.175283,10.4100146 C20.8606524,10.5850348 20.5298115,10.7306779 20.1871587,10.8450074 C19.8328868,10.9661351 19.4676418,11.0541606 19.096336,11.1079003 C18.3469792,11.2204024 17.5829684,11.1997437 16.8411364,11.04692 C16.1494538,10.904691 15.4907094,10.6386719 14.8981953,10.2623068 C14.4097897,9.95159717 13.988314,9.55063938 13.6574885,9.08199921 C13.4329464,8.76192985 13.2723802,8.40330541 13.1842436,8.02500736 C13.1675898,7.95725147 13.1523238,7.88949558 13.1412213,7.81902946 C13.038523,7.19160994 13.1315066,6.4178377 13.3244129,5.68878434 C13.5020708,5.01986004 13.762589,4.37458044 14.1002016,3.76722736 C14.3588832,3.2718191 14.6770844,2.80826464 15.0480793,2.38636237 C14.9967301,2.4270159 14.9426053,2.4649592 14.8940318,2.50696785 L14.7552503,2.63028357 C14.6650423,2.71159063 14.5734465,2.78476699 14.4985045,2.8620087 C14.8038795,2.5158275 15.1306245,2.18818237 15.4769142,1.88090345 C15.9543226,1.48520906 16.0722868,1.40796735 15.9751398,1.40932247 C15.8876689,1.42344327 15.8026509,1.44944243 15.7225574,1.48656418 L15.3658889,1.64375784 C15.0564062,1.83482944 15.3922574,1.46759253 14.9162368,1.79553103 C15.1792813,1.56986227 15.4610493,1.36589485 15.7586406,1.18572804 C15.7586406,1.17082174 15.6948011,1.20198945 15.5990419,1.26432487 L15.2618028,1.50282559 C15.0369768,1.68576649 14.8357436,1.85244597 14.9231759,1.73319561 C15.0841625,1.61123501 15.245149,1.47165788 15.4227894,1.34834217 C15.5948033,1.21944338 15.7756409,1.10217815 15.9640373,0.997366669 C15.7207651,1.09454864 15.4923959,1.2240554 15.2853957,1.38222011 C15.1466142,1.47436812 15.0217108,1.58548778 14.9245637,1.65324366 C14.8274167,1.72099955 14.7719041,1.76165308 14.7732919,1.74132632 C14.843503,1.67775422 14.9176604,1.61846833 14.9953423,1.56380589 L15.154941,1.44591065 C15.2118415,1.40525711 15.2729053,1.37002405 15.3325814,1.33208076 C15.5643465,1.1748871 15.7961116,1.0529265 15.8127654,1.0000769 C15.7413437,1.02657517 15.6733413,1.06113967 15.6101444,1.10306585 C15.4963436,1.16946662 15.3672768,1.26567999 15.2784566,1.32395005 C15.5393658,1.12339262 15.7905604,0.97297455 15.9904057,0.846948598 C16.1902511,0.720922647 16.3512377,0.640970699 16.43867,0.590831342 C16.6149225,0.497328217 16.4803045,0.479711686 15.9029734,0.726343118 C16.123076,0.613848138 16.3507372,0.516055362 16.5843906,0.433637682 C16.8300339,0.336069204 17.0937188,0.281864493 17.3129935,0.21139837 L17.3129935,0.21139837 L16.896649,0.317097555 C16.746765,0.355040852 16.6065957,0.413310916 16.506673,0.452609331 C16.6288007,0.409245563 16.7481528,0.35639597 16.874444,0.317097555 L17.2519297,0.212753488 L17.1131482,0.220884194 L16.8244826,0.2899952 C16.7287234,0.318452673 16.6357398,0.355040852 16.5399805,0.390273914 L16.784236,0.299481024 C16.8675049,0.273733787 16.9521616,0.252051903 17.0368183,0.227659783 L16.8230948,0.252051903 C16.746765,0.262892845 16.6704352,0.283219611 16.5885541,0.30219126 C16.0756772,0.435535357 15.5872892,0.646314229 15.1410629,0.926900546 C14.0178489,1.70868385 13.1251819,2.76539586 12.5527877,3.99082179 C12.2640316,4.59431451 12.0470426,5.22812599 11.9060659,5.87985595 C11.7499493,6.55492285 11.7128721,7.25104172 11.7964285,7.93827982 L11.7964285,7.93827982 Z" id="Shape"></path>
                                        <path d="M11.7964285,24.8257573 C11.8255726,24.8257573 11.8477776,24.6644983 11.8685949,24.9219707 C11.9005146,25.328506 11.9213318,25.6984531 11.9823957,26.0778861 C12.0404831,26.4836384 12.1651329,26.8776041 12.3515545,27.2446425 L12.4223331,27.2839409 C12.5768149,27.6138881 12.7802317,27.919815 13.0260327,28.1918698 C13.2828995,28.4717976 13.5824972,28.711314 13.9142343,28.9019515 C14.4957339,29.2000456 15.1198222,29.4110918 15.7655797,29.5280159 C16.0681234,29.5903513 16.363728,29.6391356 16.6551692,29.6865647 C16.9466104,29.7339938 17.2408272,29.7787127 17.5364318,29.8220765 C17.5086755,29.8017497 17.4961851,29.7854883 17.6141494,29.7963292 C18.105436,29.8545993 18.7868532,29.9602985 19.5071292,30.0063725 C19.613991,30.0063725 19.7208528,30.0145032 19.8263267,30.0145032 C19.8677866,30.0160324 19.9087969,30.005668 19.944291,29.9846906 C20.2704276,29.9982418 20.5632565,30.000952 20.8338805,30.000952 C21.740311,29.961816 22.6382107,29.8125053 23.5068124,29.5564734 C24.395683,29.2886136 25.2331592,28.8792832 25.9854502,28.3449981 C26.7634886,27.7925544 27.4023348,27.0742171 27.8534493,26.2445656 C28.2896294,25.3887709 28.5265896,24.449379 28.5473569,23.4936766 C28.5379542,22.7000955 28.4160567,21.911608 28.1851372,21.150678 C28.0167417,20.554112 27.7913906,19.9742906 27.5120468,19.4188375 C27.435717,19.2833257 27.3732653,19.1301974 27.2844451,18.9946856 L27.0388019,18.5881503 C26.8597737,18.3333881 26.6904603,18.0840465 26.5086565,17.8726481 C26.5086565,17.9309182 26.39208,17.8428355 26.2241544,17.6978379 C26.0562288,17.5528403 25.8300149,17.3482175 25.5982498,17.169342 C25.1444342,16.80075 24.6920065,16.5148201 24.8432784,16.7411248 C24.3048061,16.2627682 23.4055019,15.6488999 23.3291721,15.6570306 C23.2209225,15.6678715 23.0321796,15.6245077 22.6560817,15.478155 C22.2799838,15.3318023 21.72347,15.0716197 20.8519221,14.7003174 C20.1746683,14.3913506 19.1296435,13.8994428 18.8701221,13.8262665 C18.4662679,13.7070161 19.7361187,14.281586 19.3322645,14.1623357 C20.5920252,14.6850695 21.8046093,15.3101679 22.9572376,16.0310431 C24.0742936,16.7239028 25.0649521,17.5941228 25.8883031,18.6057668 C26.6774033,19.6040567 27.2077944,20.7737367 27.4343292,22.0152431 C27.6591552,23.2484002 27.525925,24.5466031 26.9416548,25.627987 C26.8824681,25.7553935 26.8133362,25.8781677 26.7348704,25.9952239 C26.6874871,26.0788582 26.6346409,26.1594284 26.5766594,26.2364349 C26.5142078,26.3204522 26.4503683,26.4126002 26.369875,26.5074584 L26.2491351,26.6429702 L26.1103536,26.778482 C26.0201456,26.8787607 25.9077326,26.9695536 25.8008708,27.0725426 C25.5520826,27.2828822 25.2876738,27.4749314 25.0098162,27.6471125 C24.3327637,28.0503224 23.5952284,28.3475308 22.8240074,28.527939 C21.9391072,28.7283562 21.0312395,28.815364 20.1233192,28.7867665 C19.1645811,28.7564047 18.2092371,28.6599513 17.26442,28.4981264 C16.3151545,28.3395777 15.4158503,28.1905147 14.749699,27.8707069 C13.3924159,27.2744551 13.2231024,25.8773287 13.1606507,25.1455651 C13.1523238,25.0534171 13.1467726,24.9626242 13.1426091,24.8745416 C13.1224289,23.973011 13.2057549,23.0721108 13.391028,22.1886982 C13.566386,21.3617668 13.8224504,20.5531351 14.1557142,19.7738783 C14.4075376,19.141198 14.713959,18.5305538 15.0716721,17.9485347 L14.7774553,18.3076409 L14.5276486,18.6409999 C14.7039011,18.3360984 14.9106856,18.0501685 15.0827747,17.8035371 C15.2548637,17.5569057 15.4061356,17.3685443 15.4769142,17.2520042 C15.7072915,16.9538783 15.846073,16.7709374 15.9126881,16.6652382 C15.9793032,16.559539 15.9820789,16.5392122 15.9321175,16.5608941 C15.8280314,16.5988374 15.5601831,16.8481791 15.3214789,17.0365404 C15.020323,17.3441522 15.3214789,16.8414035 14.8676633,17.3455073 C15.020323,17.1557908 15.1244091,17.0053727 15.2479247,16.869861 L15.6517789,16.4118312 C15.6517789,16.3738879 15.410299,16.6625279 15.1868608,16.9213554 C14.9634226,17.1801829 14.7913335,17.4322348 14.8648877,17.2750412 C15.0147717,17.0934554 15.1632679,16.892898 15.3298058,16.7031815 L15.5726734,16.4131863 C15.6573301,16.3196831 15.7447625,16.2302454 15.830807,16.1421627 C15.7376079,16.2074153 15.6511535,16.2813941 15.5726734,16.3630469 C15.4574847,16.4836524 15.3214789,16.6340705 15.1896364,16.7844885 C14.930115,17.0826144 14.7136158,17.3753199 14.7080646,17.3265356 C14.7455356,17.2723309 14.8218654,17.1788278 14.914849,17.0690633 L15.0633452,16.892898 L15.2312709,16.7153775 C15.3422961,16.5974823 15.4491579,16.4809422 15.5282633,16.3887942 C15.585922,16.3348144 15.6329597,16.2709724 15.6670448,16.2004328 C15.596246,16.2525638 15.5323769,16.3131073 15.4769142,16.3806634 L15.1715948,16.7262185 L15.515773,16.3196831 L15.8224801,15.9849691 C16.0001205,15.7789912 16.1500045,15.6380589 16.2221709,15.5486211 C16.2943373,15.4591834 16.3012763,15.4334361 16.2221709,15.4822204 C16.1805364,15.5066125 16.1180847,15.5513314 16.0306524,15.6177322 C15.9165973,15.7017577 15.8076975,15.7922549 15.7045158,15.8887557 C15.8710536,15.7098802 16.101431,15.5215188 16.3276448,15.3236716 C16.5538587,15.1258244 16.8022776,14.9510142 16.9993473,14.7816245 L16.9993473,14.7816245 L16.6093713,15.0824606 C16.5399805,15.1353102 16.4705898,15.1868047 16.4095259,15.2382992 L16.2499272,15.373811 L16.4136894,15.2261031 L16.5857784,15.0905913 L16.9313444,14.8195678 L16.7925629,14.8927442 L16.5261024,15.0824606 L16.3873209,15.1854496 L16.2596419,15.2992795 C16.3984234,15.1637677 16.5621856,15.0485827 16.7148452,14.9239119 C16.5857784,14.9997985 16.4372822,15.0824606 16.2804591,15.1949354 C16.0028961,15.4131094 15.7253331,15.6217975 15.4991192,15.8291305 C15.3853184,15.9307644 15.2742931,16.0229124 15.1826973,16.1137053 C15.0911016,16.2044981 15.0147717,16.2885154 14.9509322,16.3603367 C12.8672149,18.7062852 11.7438909,21.7208356 11.7964285,24.8257573 L11.7964285,24.8257573 Z" id="Shape"></path>
                                        <path d="M11.0220276,29.8749261 C11.0220276,29.9020284 11.1219503,29.9250654 10.9651272,29.9440371 C10.4682894,29.9914662 10.0561083,29.919645 9.54400454,29.9928213 L9.51208479,30.0402504 C9.11516967,30.0592221 8.69466169,30.0890347 8.26305119,30.1513701 C7.86461605,30.2307995 7.47266806,30.3385934 7.09034742,30.4738881 C6.89744112,30.541644 6.70731045,30.6202408 6.51995541,30.7069684 L6.38117389,30.7733691 L6.30900751,30.8086022 L6.22296297,30.8546762 C6.11248931,30.9165408 6.00715498,30.9867706 5.90792894,31.0647195 C5.93984869,31.0647195 5.95789029,31.0647195 5.88294827,31.1311202 C5.64659742,31.3239126 5.45699928,31.5655087 5.32782222,31.8384917 C5.25446655,32.0065125 5.22124488,32.188634 5.23067517,32.371053 C5.23067517,32.417127 5.24177769,32.4645561 5.24732895,32.5065648 C5.25749065,32.5523188 5.2699967,32.5975462 5.28479995,32.6420765 C5.30130709,32.6883932 5.32077476,32.7336528 5.34308819,32.7775883 C5.36150264,32.8220876 5.38427603,32.864746 5.41109113,32.9049694 C5.47774496,32.9994292 5.55816046,33.0838848 5.64979533,33.1556662 C5.6859114,33.1852556 5.73050058,33.2032389 5.77747432,33.2071606 C5.84981542,33.2577498 5.92589026,33.303044 6.005076,33.3426724 C6.04393482,33.3616441 6.08279365,33.3792606 6.12026465,33.395522 L6.20769701,33.4321102 L6.45750373,33.5283235 C7.53905811,33.8916448 8.65998009,34.1317373 9.79797471,34.2438257 C10.97766,34.3723173 12.1683204,34.3723173 13.3480058,34.2438257 L13.5395243,34.2194336 L13.7296549,34.1842005 L14.1085285,34.1150895 L14.4832385,34.051399 C14.6081419,34.0324274 14.7288818,33.9999045 14.8496217,33.9768675 C15.2090658,33.9064014 15.6212469,33.8494865 16.0237133,33.7505629 L16.6218616,33.6150511 L17.1700486,33.4592125 C17.1325776,33.4294 17.2061318,33.372485 17.3310351,33.3006638 C17.3934868,33.2654307 17.4698167,33.2274874 17.5503099,33.1868339 L17.7959532,33.0513221 C18.1262532,32.8670261 18.4218578,32.6949261 18.2317272,32.6800198 C18.4679668,32.5935043 18.6995661,32.4953583 18.9256347,32.3859593 C19.0630695,32.3350426 19.1921199,32.2647327 19.3086717,32.1772711 C19.3629858,32.0294158 19.459253,31.8996969 19.5862347,31.8032586 C19.709535,31.693859 19.8392862,31.5915986 19.9748229,31.497002 C20.0594797,31.4400871 20.146912,31.369621 20.252386,31.2937344 C20.3578599,31.2178478 20.4605582,31.1378958 20.582686,31.0511683 C20.6784452,30.9861226 20.792246,30.9156565 20.9074347,30.8465455 L21.2405103,30.621596 C21.3991519,30.5230682 21.5516208,30.4153701 21.6971015,30.2990779 C21.8802931,30.1147819 21.1419754,30.5701015 21.3334939,30.3898708 L20.807512,30.7557526 L20.2621007,31.0809809 L19.9845376,31.2463052 L19.7069746,31.3940131 L19.1421339,31.6880736 C18.3769158,32.0537445 17.5834113,32.3600433 16.76897,32.6041332 C15.1225972,33.1040671 13.4015006,33.3285676 11.6784642,33.2681409 C11.4311858,33.2741394 11.1837579,33.2664481 10.9373709,33.2451039 C10.7694453,33.2315528 10.5793146,33.2315528 10.373918,33.2030953 L9.71054235,33.1163678 L9.53012639,33.0933307 L9.34693479,33.0580977 L8.96806127,32.9822111 L8.57253396,32.9022591 C8.43375245,32.8697363 8.30607346,32.8304379 8.17006758,32.7938497 C7.89250455,32.716608 7.61494153,32.6583379 7.33737851,32.5472183 L6.92103397,32.3995105 C6.79335498,32.3561467 6.5837949,32.2802601 6.61987809,32.2924562 C6.60015817,32.2863416 6.58390457,32.2725384 6.57496831,32.2543171 C6.56603206,32.2360957 6.56520836,32.2150777 6.57269238,32.1962428 C6.57663466,32.1866367 6.5817611,32.1775355 6.58795835,32.1691404 L6.59767305,32.1569444 L6.62404154,32.1311971 C6.69747558,32.0637345 6.77958252,32.0058827 6.868297,31.9590972 L6.90160456,31.9414807 L6.94879028,31.9197988 L7.04177389,31.8777901 C7.10283775,31.8479775 7.16667725,31.8208752 7.23051674,31.7978382 C7.35542011,31.7449886 7.48448691,31.7016248 7.6121659,31.6623264 C7.86365319,31.5813586 8.11937225,31.5135069 8.37823984,31.4590587 C9.18452719,31.3029236 10.0031719,31.215416 10.8249579,31.197521 L11.0178642,31.1866801 C12.1877923,31.1582226 13.6116906,31.1189242 14.6012028,31.0335518 C15.0550184,30.9861226 15.5171608,30.9305628 15.9765276,30.875003 C15.7614163,30.8546762 15.5601831,30.8329943 15.3894818,30.8126676 C15.7629623,30.8157128 16.1363456,30.7994285 16.5080608,30.7638833 C17.5058999,30.6730904 16.9396713,30.6080448 16.5524709,30.5118314 C16.2749078,30.472533 16.6482301,30.3912259 16.213844,30.3546378 L16.9965717,30.3410866 C17.0312671,30.2963677 16.0320402,30.3871606 16.2485394,30.3099189 C16.5496952,30.3194047 16.8869343,30.2841716 17.2005805,30.2787512 C17.0909431,30.2218362 16.1153091,30.2787512 16.1624948,30.2218362 C16.3318083,30.2042197 17.0437574,30.2814614 17.1034335,30.2055748 C16.9511503,30.1923574 16.7980778,30.1900928 16.6454545,30.1987992 C17.609986,30.1527252 18.1401314,30.0632874 17.2588688,30.0104379 C17.5641881,30.0104379 17.9971864,30.0266993 18.3205473,30.0104379 L18.3205473,30.0104379 C18.1595608,30.0104379 17.8806099,30.0036623 17.7307259,30.0104379 L18.2858519,30.000952 L18.1887049,29.9724946 C18.0499234,29.9724946 17.9111419,29.9630087 17.7723604,29.965719 L18.1387435,29.965719 C18.0471477,29.9440371 17.9416738,29.9237103 17.8264851,29.9047387 C17.3907112,29.8681505 16.9729788,29.8085253 16.7384381,29.8125907 C14.8329679,29.8098804 12.9247222,29.827497 11.0220276,29.8749261 Z" id="Shape"></path>
                                        <path d="M31.3146602,29.7177324 C31.3146602,29.6906301 31.2286157,29.6567521 31.3743363,29.6540419 C31.8337031,29.6621726 32.1751056,29.80446 32.5942258,29.8898324 L32.637248,29.8545993 C32.9565021,29.9607642 33.2598602,30.1079583 33.5393279,30.2923023 C33.6049802,30.326995 33.6684684,30.3654574 33.7294585,30.4074874 L33.8196665,30.4657574 L33.9043232,30.5335133 C33.9623003,30.5751693 34.0174648,30.6204338 34.0694732,30.6690251 C34.1238816,30.7175242 34.1753196,30.7691079 34.2235207,30.8235085 C34.4211286,31.0370997 34.5827404,31.279981 34.7023169,31.543076 C34.7106438,31.5241044 34.7231342,31.5105532 34.7522783,31.5620477 C34.8693699,31.8307742 34.9170282,32.123482 34.8910598,32.4144168 L34.8910598,32.4835278 L34.8827329,32.5499285 C34.8827823,32.5713217 34.892417,32.5916224 34.9091014,32.6054884 C34.8840891,32.7291724 34.8410944,32.8487291 34.7814224,32.9605292 C34.6014314,33.3502176 34.3128976,33.682666 33.9487333,33.9199526 C33.7450478,34.0635386 33.5307365,34.1921759 33.3075627,34.304806 C33.1951497,34.3671414 33.0785732,34.4213462 32.960609,34.4755509 C32.8426447,34.5297556 32.7232926,34.5798949 32.6025527,34.6286792 C31.5846861,35.0311439 30.4894169,35.2128558 29.3925363,35.1612404 C28.9080336,35.1650394 28.4248279,35.1118059 27.953372,35.0026917 C27.2249351,34.7927891 26.5316355,34.4805543 25.8952422,34.0757911 C25.8952422,34.1232202 25.806422,34.1069588 25.6731918,34.0608848 C25.6065767,34.0378478 25.5344103,34.0080352 25.4469779,33.9728022 L25.1957834,33.8549069 C24.8599321,33.695003 24.553225,33.5310338 24.6406574,33.6963582 C24.2673351,33.4131385 23.7399653,32.9551087 23.6844527,32.9618843 C23.5165271,32.9876316 23.1293267,32.8724466 22.1800612,32.0539554 C21.8220049,31.7246618 21.3473721,31.1555124 21.2085906,31.0525234 C20.9920914,30.8899093 21.5721981,31.5634028 21.355699,31.4021438 C21.9705011,32.0512452 22.6047326,32.6949261 23.2833742,33.2993086 C23.9691544,33.9184193 24.7172913,34.4682318 25.5163687,34.9403563 C25.9276899,35.178295 26.355744,35.387506 26.797322,35.5664207 C27.2470795,35.7451419 27.7112857,35.8870153 28.1851372,35.9905725 C29.1418976,36.1946954 30.1266011,36.2432285 31.0995489,36.134215 C31.832506,36.0249148 32.5507271,35.8362957 33.2409476,35.5718411 L33.6198211,35.4119372 L34.0097972,35.2235759 C34.2925164,35.0804529 34.5630756,34.9155074 34.8188934,34.730313 C35.1098331,34.520553 35.3687128,34.2714228 35.587743,33.9904187 C35.8285445,33.6784836 35.9996893,33.3207149 36.090132,32.9402024 C36.1746739,32.5608782 36.181748,32.168995 36.1109493,31.7869972 C36.0444136,31.4262673 35.9217949,31.0775885 35.7473417,30.7530424 C35.4239797,30.1477188 34.9459241,29.6342471 34.3595266,29.2624128 C34.1046344,29.1054127 33.8367842,28.9694302 33.5587573,28.8558775 C33.3153481,28.7605157 33.0659609,28.6804014 32.8121127,28.6160217 C32.4364503,28.5226001 32.0542186,28.4564703 31.6685531,28.4181745 L31.4617686,28.4032682 C30.8184959,28.3589439 30.1727137,28.3621148 29.52993,28.412754 C28.9446125,28.4539853 28.362175,28.5277327 27.7854464,28.6336382 C27.330243,28.7284965 26.8736519,28.8436815 26.422612,28.9710625 C26.6404989,28.9561562 26.8389565,28.9493806 27.0179846,28.9466704 C26.6426926,28.9939734 26.2715661,29.0687148 25.9077326,29.1702648 C25.4219973,29.3057766 25.326238,29.3708223 25.3997922,29.3952144 C25.5706416,29.4154815 25.7425668,29.4258888 25.9146716,29.4263821 C26.1922346,29.4168963 25.8452809,29.5618939 26.2755036,29.5225955 C25.971572,29.5795104 25.8203002,29.6106781 25.5177565,29.6757238 C25.491388,29.7204427 26.444817,29.4561947 26.2505229,29.5727348 C25.9549183,29.6120332 25.6357208,29.7082466 25.3345649,29.7773576 C25.5247422,29.7682834 25.7135062,29.7405905 25.8980178,29.6946954 C26.1408855,29.6472663 26.3670994,29.6120332 26.3490578,29.6445561 C26.189459,29.6865647 25.4844489,29.7407694 25.4442023,29.8288521 C25.5933904,29.8115885 25.7412727,29.7848817 25.8869153,29.7489001 C25.5660747,29.8166539 25.252098,29.9123466 24.9487523,30.03483 C24.8210733,30.1012307 24.9126691,30.1120717 25.3401162,30.0497363 C25.0500628,30.116137 24.6351061,30.1933787 24.3339502,30.288237 L24.3339502,30.288237 C24.4866099,30.2489386 24.7502947,30.1906685 24.8890763,30.1527252 C24.7155994,30.1947339 24.5435103,30.242163 24.3714212,30.288237 L24.4699561,30.288237 C24.6004107,30.2611346 24.7322531,30.2326772 24.8668712,30.2001543 C24.7521452,30.2281601 24.6374191,30.2579727 24.5226931,30.2895921 C24.6142889,30.2895921 24.7197628,30.2895921 24.8335637,30.277396 C25.2499082,30.2150606 25.6662527,30.1947339 25.8827519,30.1486599 C26.7810619,29.9725983 27.6887076,29.8454726 28.6014817,29.7678718 C29.0576103,29.7290251 29.5142014,29.7028261 29.9712552,29.6892749 C30.4192612,29.6764769 30.8676441,29.685975 31.3146602,29.7177324 L31.3146602,29.7177324 Z" id="Shape"></path>
                                        <path d="M7.63298313,17.6490537 C7.61632935,17.6707356 7.66351506,17.7303607 7.56220456,17.6856418 C7.41891027,17.6107268 7.28322119,17.5227012 7.15696254,17.422749 C7.03282037,17.3202555 6.89898918,17.2295069 6.75727179,17.1517255 L6.71147389,17.1761176 C6.49775036,17.0135034 6.27708776,16.8427586 6.05364953,16.6638831 C5.61787558,16.3738879 5.17932601,16.0730517 4.76159366,15.7722156 C4.76159366,15.7925423 4.76159366,15.8088038 4.71302013,15.7817014 C4.49420532,15.6196183 4.28391471,15.4468466 4.08295207,15.2640464 C4.04686887,15.2369441 4.00939786,15.2098417 3.9760903,15.1827394 C3.9572141,15.1739608 3.93529045,15.1739608 3.91641425,15.1827394 C3.81510375,15.0905913 3.72350795,15.0079292 3.63885123,14.9279772 C3.05205983,14.4644725 2.52666174,13.9314238 2.0747836,13.3411343 C2.01653958,13.2676604 1.96233826,13.1912142 1.91240923,13.1121194 C1.86244788,13.0335226 1.80832309,12.9562809 1.75974956,12.8749738 C1.66395684,12.7121169 1.57732133,12.5442853 1.50022814,12.3722251 C1.42091604,12.1957946 1.35278465,12.014771 1.29621932,11.830178 C1.24292136,11.6428675 1.20258372,11.4522693 1.1754794,11.2596734 C1.13992903,11.094863 1.11673725,10.9277401 1.10608865,10.759635 C1.10161562,10.6761265 1.10161562,10.5924467 1.10608865,10.5089382 C1.1013389,10.4249311 1.10273024,10.3407002 1.11025209,10.2568863 C1.14972559,9.99259945 1.21955642,9.73349417 1.31842436,9.48446918 C1.36721279,9.35571947 1.4227999,9.22952438 1.48496217,9.10639133 C1.54463822,8.98578585 1.60015083,8.86924572 1.66399032,8.76490165 C1.57655797,8.76490165 1.65011217,8.4857474 1.74864704,8.23505061 C1.84718192,7.98435383 1.94571679,7.74991845 1.80415965,7.80276805 C1.90130671,7.66725627 2.04147603,7.49922167 2.14556217,7.36099966 C2.2496483,7.22277765 2.33846847,7.1197887 2.32875376,7.08997611 C2.30024418,6.96356339 2.32207666,6.83129426 2.38981763,6.72002896 C2.53644172,6.43079064 2.72894559,6.16598841 2.96020964,5.93541578 C3.10878553,5.79392639 3.26638647,5.66176391 3.43206678,5.53972139 C3.55368143,5.45805411 3.66874106,5.36745025 3.77624493,5.26869784 C3.90808736,5.11014906 3.34602224,5.48958203 3.47647686,5.33103326 C2.93312952,5.74928905 2.43003876,6.21512581 1.97347309,6.72273919 C1.50281715,7.23836933 1.10043254,7.80974233 0.775788649,8.42341198 C0.438158519,9.06647697 0.229036718,9.76644212 0.159598738,10.4859012 C0.141859233,10.6692052 0.134908728,10.8533523 0.138781511,11.0374341 C0.138781511,11.2217301 0.165149999,11.4060262 0.17902815,11.5903222 C0.192906301,11.7746182 0.240092015,11.956204 0.284502098,12.1323693 C0.329046417,12.3115064 0.382776276,12.4883462 0.445488652,12.6622203 C0.655000969,13.1656733 0.919768725,13.6454755 1.23515545,14.0932247 C1.75440818,14.8069531 2.36019718,15.4567111 3.0393151,16.0283328 C3.39598358,16.3359446 3.76653022,16.6313602 4.13291341,16.9010287 C4.4992966,17.1706971 4.8573529,17.4254592 5.19042853,17.6571844 C5.86074323,18.1179244 6.43946213,18.4824511 6.78364028,18.6870739 L6.90993145,18.7588951 C7.67699704,19.2193527 8.49500818,19.5934915 9.34832261,19.874157 C9.68139824,19.9635948 10.0241886,20.0394814 10.3669789,20.1004617 C10.2281974,20.0259302 10.0894159,19.9568192 9.97700286,19.8917736 C10.1421529,19.9486885 10.3073029,20.0028932 10.44886,20.046257 C10.5558455,20.0805813 10.6660043,20.1046356 10.7777722,20.1180782 C11.1441554,20.1885443 11.2329755,20.1627971 11.1941167,20.1180782 C11.0943413,20.0361148 10.9896031,19.9600907 10.8804705,19.8904184 C10.7000545,19.7914948 10.9803932,19.7955602 10.6945033,19.666824 C10.9096146,19.7278043 11.0164764,19.7643925 11.2357512,19.8199523 C11.2704465,19.7914948 10.5626608,19.6573382 10.7333621,19.6315909 C10.9493597,19.7004028 11.1695196,19.7560694 11.3925743,19.7982704 C11.3301226,19.7305145 10.651481,19.5773862 10.6986667,19.5272469 C10.816631,19.5462185 11.2787734,19.7752334 11.3412251,19.7074775 C11.2407161,19.6670633 11.1372703,19.6339977 11.0317423,19.6085539 C11.702057,19.758972 12.0781549,19.7562618 11.4952726,19.5462185 C11.7320071,19.6158768 11.9724562,19.6728764 12.2155486,19.7169634 L12.2155486,19.7169634 C12.1045234,19.6939264 11.9171684,19.6424319 11.8158579,19.6221051 L12.1919558,19.6979917 L12.1322797,19.654628 C12.0406839,19.6275256 11.9477003,19.6031335 11.8547167,19.5828067 L12.1031356,19.6329461 C12.0448474,19.597713 11.9782323,19.5611248 11.904678,19.5245366 C11.7658965,19.4757524 11.627115,19.4107068 11.5063751,19.3592123 C11.4085762,19.3149495 11.3085228,19.2755996 11.206607,19.241317 C9.95419452,18.852723 8.75432921,18.3181112 7.63298313,17.6490537 L7.63298313,17.6490537 Z" id="Shape"></path>
                                        <path d="M32.300009,17.066353 C32.284743,17.043316 32.2292304,17.0487365 32.2833552,16.9945318 C32.4623833,16.8373381 32.674719,16.8021051 32.8523594,16.6422012 L32.839869,16.5961272 L33.3422581,16.3129076 C33.6299985,16.0951853 33.9112623,15.8715909 34.1860497,15.6421243 C34.1680081,15.6353487 34.1555178,15.6258629 34.1860497,15.6001156 C34.2956871,15.4998369 34.4636127,15.3873621 34.6398652,15.2586259 L34.709256,15.1949354 C34.7169584,15.1795436 34.7169584,15.161543 34.709256,15.1461512 C34.7855858,15.0878811 34.8563644,15.0377418 34.9202039,14.9916677 C35.3221626,14.6243525 35.7016891,14.234311 36.0568245,13.8235562 C36.4538006,13.3725814 36.7564888,12.8500627 36.9478018,12.2854976 C37.0014728,12.0312673 37.0302838,11.7726327 37.0338463,11.5130805 C37.0622441,11.1164444 37.0151906,10.7181023 36.8950648,10.3381934 C36.8617572,10.3639406 36.8145715,10.3381934 36.7562833,10.2799233 C36.6979951,10.2216532 36.6313799,10.1552525 36.5689283,10.0874966 C36.4301467,9.95198481 36.2996921,9.85577145 36.270548,9.96418087 C36.1636862,9.78530532 35.9624531,9.54138413 35.9138795,9.56442113 C35.775098,9.63217702 35.5752526,9.58203766 35.1367031,9.42890935 C35.0950686,9.41400306 35.0520463,9.38554559 35.0048606,9.3638637 C34.9576749,9.34218182 34.911877,9.31914482 34.8660791,9.29610781 C34.8030361,9.26423695 34.735049,9.24271897 34.6648459,9.23241728 C34.6301505,9.23241728 34.6301505,9.24732358 34.6481921,9.26222987 C34.6662337,9.27713617 34.6842753,9.29746293 34.709256,9.31643458 C34.7550539,9.35437788 34.7980762,9.39096606 34.7481148,9.39909676 C35.3431447,9.6288034 35.8038515,10.1034547 36.0068631,10.6959445 C36.1113765,10.9796509 36.1395696,11.2848014 36.0887442,11.5821915 C36.0242346,11.9046579 35.888292,12.2094506 35.6904413,12.4752141 C35.5446672,12.7193934 35.3669172,12.9439765 35.1616837,13.1432871 C34.7836344,13.5135277 34.3842172,13.8623621 33.9653871,14.1880829 C33.0466535,14.9320426 32.0390997,15.6543203 31.6144283,15.9294092 L31.5394863,15.9836139 C31.0815073,16.2925808 30.5305447,16.6733689 30.1711006,16.9769153 C30.0115018,17.123268 29.8519031,17.2791065 29.6909166,17.4308797 C29.7908392,17.3983569 29.8852107,17.3712545 29.9684796,17.3482175 C29.8121731,17.4324343 29.6656078,17.53284 29.5313178,17.6476986 C29.1649346,17.9526 29.4355586,17.8780686 29.6492821,17.8726481 C29.7880636,17.8428355 29.6742628,17.9973189 29.875496,17.9268528 L29.5604619,18.1179244 C29.5701766,18.1653535 29.9393355,17.8563867 29.8907619,17.9729268 C29.7603073,18.0352622 29.6367918,18.1423165 29.5091128,18.2182031 C29.5854426,18.2425952 29.9629283,17.9661512 29.9754187,18.0271315 C29.9143548,18.0826914 29.5743401,18.1802598 29.589606,18.2575015 C29.589606,18.2724078 29.7283876,18.1965212 29.7866758,18.1585779 C29.4064145,18.4201157 29.2315497,18.6098322 29.6298527,18.4594141 C29.5035615,18.5339456 29.3092674,18.6138975 29.1815884,18.7033353 L29.1815884,18.7033353 C29.2495913,18.665392 29.3717191,18.6098322 29.4327829,18.5678235 L29.2051813,18.7033353 L29.2606939,18.7033353 C29.3226706,18.6771981 29.3829252,18.647328 29.4411098,18.6138975 L29.289838,18.7019802 C29.3452468,18.6991106 29.40041,18.6927737 29.454988,18.6830085 C29.6293575,18.6380736 29.8000661,18.5805486 29.9657039,18.5109086 C30.7636976,18.0637197 31.5464254,17.5826529 32.300009,17.066353 Z" id="Shape"></path>
                                    </g>
                                </g>
                            </g>
                        </g>
                    </g>
                </g>
            </g>
        </g>
    </g>
</svg>