<?xml version="1.0" encoding="UTF-8" standalone="no"?>
<svg width="250px" height="400px" viewBox="0 0 250 400" version="1.1" xmlns="http://www.w3.org/2000/svg" xmlns:xlink="http://www.w3.org/1999/xlink">
    <!-- Generator: Sketch 42 (36781) - http://www.bohemiancoding.com/sketch -->
    <title>Group 9</title>
    <desc>Created with Sketch.</desc>
    <defs></defs>
    <g id="Desktop" stroke="none" stroke-width="1" fill="none" fill-rule="evenodd">
        <g id="sign-in-pop-up--homepage-filled-in" transform="translate(-62.000000, -2134.000000)">
            <g id="Group-9" transform="translate(62.000000, 2134.000000)">
                <rect id="Rectangle-2" fill="#A9D8DD" opacity="0.600000024" x="-2.84217094e-14" y="0" width="250" height="400" rx="8"></rect>
                <g id="Group-3" transform="translate(25.000000, 32.000000)">
                    <g id="first-icon" transform="translate(25.000000, 90.000000)">
                        <circle id="Oval-8" stroke="#4A4A4A" cx="75.5" cy="75.5" r="75.5"></circle>
                        <g id="Group-6" transform="translate(38.000000, 39.000000)" fill="#4A4A4A">
                            <g id="Icon-1">
                                <g id="Asset-1">
                                    <g id="Layer_2">
                                        <g id="Layer_1-2">
                                            <path d="M23.7501427,15.9824034 C23.8088195,15.9824034 23.819996,15.6768334 23.9149966,16.140645 C24.0438304,16.8346736 24.2307324,17.5172179 24.4738235,18.1814162 C24.7180439,18.8419092 25.0658703,19.4613454 25.5048591,20.0175646 L25.6417717,20.0503043 C26.328708,21.006086 27.1595551,21.8550704 28.1061982,22.5685286 C29.9246549,23.8004756 32.0156713,24.5951133 34.2085878,24.8875868 C34.1582934,24.8466623 34.1359403,24.8139226 34.3510887,24.8302924 C35.4840129,24.9828942 36.6297676,25.0240251 37.7711092,24.9530661 L38.3299361,24.8821302 C38.472437,24.8493906 38.5059666,24.8139226 38.5283197,24.7920962 L39.3442069,24.6747791 L40.0790643,24.5329073 C41.6081881,24.1314161 43.0611129,23.4920828 44.3820313,22.6394645 C45.7013045,21.7832294 46.8814708,20.7384709 47.8830817,19.5401115 C48.9008244,18.3309763 49.7328867,16.9836185 50.3530966,15.5404182 C51.0144296,14.0565531 51.3986186,12.4691491 51.4875151,10.8531923 C51.4869737,10.138687 51.374851,9.42844006 51.1550131,8.74694183 C50.9416512,8.10116508 50.6607565,7.4785568 50.3167728,6.88896697 C50.196625,6.67615928 50.070889,6.45789498 49.9339764,6.23963068 L49.489709,5.58483778 C49.1831265,5.1322906 48.852016,4.69605045 48.4977913,4.27798028 C48.3301432,4.05971598 48.1233773,3.87146302 47.9389644,3.66956855 C47.7545515,3.46767407 47.5729328,3.26305129 47.3801375,3.09116815 L46.7961634,2.57006213 C46.7011629,2.48548472 46.6089564,2.4009073 46.51675,2.32178649 L46.2373365,2.10352219 C46.2513072,2.31632988 45.3236546,1.73792949 44.4043844,1.34505375 C43.4851141,0.952178009 42.6189325,0.67661933 42.9514345,1.014929 C41.8589279,0.469268245 40.0986232,-0.076392505 39.9784754,0.0136415188 C39.8534312,0.0740502286 39.7179095,0.111065273 39.5789142,0.122773669 C39.4867078,0.122773669 39.3777365,0.139143491 39.2492063,0.144600099 C39.1206762,0.150056706 38.9697929,0.163698225 38.804939,0.166426529 C38.4696428,0.166426529 38.0533168,0.141871795 37.5224313,0.166426529 C37.2569885,0.166426529 36.9636044,0.147328403 36.645073,0.166426529 L35.5888902,0.215535996 C35.2899178,0.242819034 34.9518276,0.264645464 34.6053549,0.281015286 C34.2588822,0.297385109 33.9096154,0.365592703 33.5799076,0.398332348 L33.3368179,0.425615385 C33.2585821,0.425615385 33.1831405,0.45835503 33.110493,0.471996549 L32.6913728,0.556573965 C32.5119154,0.593347566 32.3346821,0.639799895 32.1604873,0.695717457 C31.9928392,0.766653354 32.0151923,0.783023177 32.1297518,0.774838265 C32.2443113,0.766653354 32.4315183,0.750283532 32.6271077,0.728457102 C33.0126983,0.687532545 33.3871123,0.643879685 33.0825516,0.761196747 C37.3464008,-0.0845774163 41.9427519,1.13224606 45.2985074,3.76233087 L45.9048345,4.28343689 L46.2066011,4.55626726 L46.4860145,4.82909764 C46.6676332,5.0200789 46.8632227,5.20287525 47.0448414,5.39931312 L47.5477856,6.01045316 C47.71585,6.21362861 47.87076,6.42685102 48.0116119,6.64887624 C48.1569069,6.86986885 48.3189667,7.07721993 48.450291,7.30639745 C48.7145341,7.74134821 48.9398325,8.19775965 49.1236774,8.67054932 C49.2927207,9.10182092 49.4017333,9.55329111 49.447797,10.0128748 C49.4870659,10.4889924 49.468307,10.9679787 49.3919143,11.4397776 C49.3117468,11.9559745 49.1893445,12.4650683 49.0258827,12.9621711 C48.9476469,13.2186317 48.8638229,13.4750922 48.7632341,13.7233679 L48.6179391,14.0998738 L48.4530851,14.4709231 C48.2236906,15.0367929 47.9490164,15.5841455 47.6316096,16.1079053 C47.1068009,16.9949494 46.4775742,17.8190353 45.7567454,18.5633787 C44.84587,19.5118949 43.7925439,20.3196151 42.6329031,20.9588294 C41.9994468,21.3112035 41.3333537,21.6044314 40.6434794,21.8346149 C39.9302121,22.0784853 39.1948522,22.2557101 38.4472898,22.3639058 C36.9385848,22.5904102 35.4003764,22.5488172 33.9068213,22.2411322 C32.5142336,21.9547779 31.1879616,21.4191927 29.9950331,20.6614443 C29.01171,20.0358823 28.1631388,19.2286206 27.4970769,18.2850917 C27.0449988,17.6406854 26.7217255,16.9186549 26.5442771,16.1570148 C26.5107475,16.0205996 26.480012,15.8841844 26.4576589,15.7423126 C26.250893,14.479108 26.4381,12.9212466 26.8264847,11.4534191 C27.1841693,10.1066516 27.7086793,8.80748862 28.3884058,7.58468443 C28.9092182,6.58726245 29.5498633,5.65397282 30.2967996,4.80454291 C30.1934166,4.88639202 30.0844454,4.96278452 29.9866507,5.04736194 L29.7072373,5.29563758 C29.5256185,5.45933581 29.3412056,5.60666421 29.1903224,5.76217752 C29.8051441,5.06519937 30.4629906,4.4055405 31.1601872,3.78688561 C32.1213694,2.99022091 32.3588708,2.8347076 32.1632814,2.8374359 C31.9871733,2.86586578 31.8160039,2.91821077 31.654749,2.99294921 L30.9366564,3.30943245 C30.3135644,3.69412328 30.989745,2.95475296 30.0313569,3.61500247 C30.5609531,3.16065604 31.1282459,2.75000163 31.7273965,2.38726578 C31.7273965,2.35725444 31.5988663,2.42000543 31.406071,2.5455074 L30.7270963,3.02568886 C30.2744465,3.39400987 29.8692971,3.72959123 30.0453275,3.4895005 C30.3694471,3.24395316 30.6935667,2.96293787 31.0512159,2.71466223 C31.3975373,2.45514601 31.7616237,2.21905201 32.1409283,2.00803156 C31.6511404,2.20369127 31.1913571,2.46443154 30.7745966,2.78286983 C30.4951832,2.96839448 30.2437111,3.19211539 30.0481217,3.32853058 C29.8525322,3.46494576 29.7407669,3.54679488 29.743561,3.50587032 C29.8849194,3.37787849 30.034223,3.25851624 30.1906225,3.14846253 L30.511948,2.9111001 C30.6265075,2.82925099 30.7494494,2.75831509 30.8695972,2.68192259 C31.3362176,2.36543935 31.8028381,2.11989201 31.8363677,2.01348817 C31.692572,2.06683801 31.5556606,2.13642786 31.4284241,2.22083925 C31.199305,2.35452614 30.9394505,2.5482357 30.7606259,2.66555276 C31.2859232,2.26176381 31.7916615,1.95892209 32.1940169,1.70518984 C32.5963723,1.4514576 32.9204919,1.29048767 33.0965223,1.18954044 C33.4513774,1.00128748 33.1803464,0.965819528 32.0179864,1.46237081 C32.4611263,1.23588092 32.9194842,1.03899146 33.3899064,0.8730572 C33.8844682,0.67661933 34.4153538,0.56748718 34.856827,0.425615385 L34.856827,0.425615385 L34.0185867,0.638423078 C33.7168202,0.714815583 33.4346126,0.832132644 33.2334349,0.911253453 C33.4793187,0.823947733 33.7196143,0.717543887 33.9738805,0.638423078 L34.7338851,0.428343689 L34.4544717,0.444713511 L33.8732917,0.583857003 C33.6804964,0.641151382 33.4932894,0.714815583 33.3004941,0.78575148 L33.7922618,0.602955129 C33.9599099,0.551117358 34.1303521,0.507464498 34.3007943,0.45835503 L33.8704976,0.507464498 C33.7168202,0.529290928 33.5631428,0.570215484 33.3982888,0.608411737 C32.3656969,0.876877852 31.3824089,1.30124598 30.4840066,1.86615977 C28.2226024,3.44015015 26.4253662,5.56766366 25.2729459,8.03485455 C24.6915836,9.24988654 24.2547123,10.5259603 23.9708793,11.83811 C23.6565646,13.1972447 23.5819158,14.598764 23.7501427,15.9824034 L23.7501427,15.9824034 Z" id="Shape"></path>
                                            <path d="M23.7501427,49.9825247 C23.8088195,49.9825247 23.8535256,49.6578566 23.8954376,50.1762343 C23.9597027,50.9947254 24.0016148,51.7395523 24.1245567,52.5034774 C24.241506,53.3203919 24.4924675,54.1135763 24.8677964,54.8525469 L25.0102973,54.9316677 C25.3213207,55.5959615 25.7308664,56.2118943 26.2257458,56.7596312 C26.7429043,57.3232191 27.3460944,57.8054455 28.0139918,58.1892624 C29.1847443,58.7894251 30.4412419,59.2143314 31.7413671,59.4497387 C32.3504884,59.5752407 32.9456391,59.6734596 33.5324073,59.7689503 C34.1191755,59.8644409 34.711532,59.9544749 35.3066827,60.0417807 C35.2508,60.0008561 35.2256528,59.9681164 35.4631542,59.9899429 C36.4522778,60.1072599 37.8241978,60.3200676 39.2743535,60.41283 C39.4895019,60.41283 39.7046502,60.4291998 39.9170045,60.4291998 C40.000477,60.4322786 40.0830445,60.4114117 40.1545059,60.3691771 C40.8111275,60.3964601 41.4006898,60.4019167 41.9455461,60.4019167 C43.7704929,60.3231228 45.5782643,60.0225107 47.327049,59.5070331 C49.1166418,58.967742 50.8027606,58.1436235 52.3173731,57.0679296 C53.8838236,55.9556761 55.1700341,54.5094238 56.078278,52.8390587 C56.9564539,51.1160588 57.4335338,49.2247497 57.4753452,47.3006021 C57.4564145,45.7028589 57.2109941,44.1153707 56.7460761,42.5833649 C56.40704,41.3822789 55.9533331,40.214905 55.3909209,39.0965928 C55.2372435,38.8237624 55.1115075,38.5154641 54.9326829,38.2426337 L54.4381211,37.4241426 C54.0776778,36.9112214 53.7367934,36.4092136 53.3707617,35.9835982 C53.3707617,36.1009152 53.1360545,35.9235755 52.7979642,35.631647 C52.4598739,35.3397185 52.00443,34.9277446 51.5378096,34.5676085 C50.6241276,33.8255099 49.7132398,33.2498378 50.0178004,33.7054645 C48.9336763,32.7423733 47.1230772,31.5064517 46.9693998,31.5228215 C46.7514573,31.544648 46.371455,31.4573423 45.6142446,31.1626854 C44.8570341,30.8680286 43.7365862,30.3441943 41.9818698,29.5966391 C40.6183322,28.9745858 38.514349,27.9842116 37.9918458,27.8368832 C37.1787527,27.5967924 39.7353857,28.7535932 38.9222926,28.5135025 C41.4586107,29.56594 43.8999468,30.8244714 46.2205717,32.2758334 C48.4695777,33.6707909 50.4641035,35.422834 52.1217837,37.4596105 C53.7105053,39.4695008 54.7783593,41.8244566 55.2344494,44.3240227 C55.6870992,46.8067792 55.4188623,49.4204941 54.2425317,51.5976805 C54.1233691,51.8541922 53.9841835,52.1013776 53.8262057,52.3370509 C53.7308074,52.5054345 53.6244104,52.6676491 53.5076743,52.8226889 C53.3819383,52.9918438 53.2534081,53.1773684 53.0913483,53.3683497 L52.8482586,53.6411801 L52.5688452,53.9140104 C52.3872264,54.1159049 52.1609015,54.2987013 51.9457532,54.5060523 C51.4448597,54.9295362 50.9125166,55.3161951 50.3530966,55.6628531 C48.9899642,56.4746491 47.5050598,57.0730286 45.9523348,57.4362506 C44.1707358,57.8397571 42.3428956,58.0149329 40.5149492,57.9573566 C38.58469,57.8962281 36.661264,57.7020352 34.7590323,57.3762279 C32.8478444,57.0570163 31.0372452,56.7569029 29.6960607,56.1130232 C26.9633972,54.9125696 26.6225128,52.0996884 26.4967768,50.6264044 C26.480012,50.4408798 26.4688355,50.2580834 26.4604531,50.0807437 C26.4198234,48.2656622 26.5875865,46.4518497 26.9606031,44.6732456 C27.3136571,43.0083571 27.8292002,41.3803119 28.5001712,39.8114083 C29.0071757,38.5376119 29.6241042,37.3081817 30.3442999,36.1363832 L29.7519434,36.8593837 L29.2489992,37.5305464 C29.6038543,36.9166781 30.0201803,36.341006 30.366653,35.8444547 C30.7131257,35.3479034 31.0176863,34.9686692 31.1601872,34.7340351 C31.6240135,34.1338082 31.9034269,33.7654872 32.0375454,33.5526795 C32.1716638,33.3398718 32.1772521,33.2989473 32.0766633,33.3426001 C31.8671032,33.4189926 31.3278352,33.9210005 30.8472441,34.3002348 C30.2409169,34.9195597 30.8472441,33.907359 29.9335621,34.922288 C30.2409169,34.5403255 30.450477,34.2374838 30.699155,33.9646534 L31.5122481,33.0424867 C31.5122481,32.9660942 31.0260687,33.5472229 30.5762131,34.0683289 C30.1263574,34.589435 29.7798848,35.0968995 29.9279739,34.7804162 C30.2297404,34.4148235 30.5287128,34.0110346 30.8640089,33.629072 L31.3529824,33.045215 C31.5234246,32.8569621 31.6994551,32.676894 31.8726914,32.4995543 C31.6850505,32.6309296 31.5109891,32.7798734 31.3529824,32.9442678 C31.1210693,33.1870868 30.8472441,33.4899285 30.5818013,33.7927703 C30.0592982,34.3929971 29.6234132,34.9823107 29.6122367,34.8840918 C29.6876783,34.7749596 29.8413557,34.5867067 30.0285627,34.365714 L30.3275351,34.0110346 L30.6656254,33.6536268 C30.8891561,33.4162643 31.1043045,33.1816302 31.2635701,32.9961056 C31.3796564,32.8874263 31.4743589,32.7588912 31.5429836,32.6168713 C31.4004419,32.7218285 31.2718521,32.8437226 31.1601872,32.9797357 L30.5454776,33.6754532 L31.2384229,32.8569621 L31.8559266,32.183071 C32.2135758,31.7683689 32.5153424,31.4846253 32.6606374,31.3045572 C32.8059323,31.1244892 32.819903,31.0726514 32.6606374,31.1708704 C32.5768133,31.2199798 32.4510773,31.3100138 32.2750468,31.4437007 C32.045416,31.6128722 31.8261642,31.7950732 31.6184252,31.9893615 C31.9537213,31.6292254 32.4175477,31.2499912 32.8729916,30.8516588 C33.3284355,30.4533265 33.8285855,30.1013753 34.2253526,29.7603373 L34.2253526,29.7603373 L33.4402009,30.3660208 C33.3004941,30.4724246 33.1607874,30.5761001 33.0378455,30.6797757 L32.71652,30.9526061 L33.0462279,30.6552209 L33.3927006,30.3823906 L34.08844,29.8367298 L33.8090266,29.9840582 L33.2725528,30.3660208 L32.9931393,30.5733718 L32.736079,30.8025494 C33.0154924,30.529719 33.3452003,30.2978132 33.6525551,30.0468092 C33.3927006,30.1995942 33.0937282,30.3660208 32.777991,30.59247 C32.2191641,31.0317269 31.6603372,31.4518856 31.2048933,31.8693161 C30.9757743,32.0739389 30.7522435,32.2594636 30.5678307,32.4422599 C30.3834178,32.6250563 30.2297404,32.7942111 30.1012102,32.9388112 C25.9059928,37.6619876 23.6443671,43.7312823 23.7501427,49.9825247 L23.7501427,49.9825247 Z" id="Shape"></path>
                                            <path d="M22.1910156,60.1481845 C22.1910156,60.2027506 22.3921933,60.2491317 22.0764561,60.287328 C21.076156,60.3828186 20.2462981,60.2382185 19.2152625,60.3855469 L19.1509974,60.4810376 C18.3518749,60.5192338 17.5052522,60.5792565 16.6362764,60.7047585 C15.8340936,60.8646764 15.0449717,61.0817014 14.2752328,61.3540948 C13.8868481,61.4905099 13.5040517,61.6487516 13.1268436,61.823363 L12.8474301,61.9570499 L12.7021351,62.0279858 L12.5288988,62.1207481 C12.3064785,62.2453022 12.0944054,62.3866981 11.8946303,62.5436352 C11.9588954,62.5436352 11.9952191,62.5436352 11.8443358,62.6773221 C11.3684828,63.0654773 10.9867585,63.5518909 10.7266821,64.1014966 C10.5789927,64.4397784 10.5121064,64.8064499 10.5310927,65.17372 C10.5310927,65.2664823 10.5534457,65.361973 10.5646223,65.4465504 C10.5850812,65.5386685 10.61026,65.6297264 10.6400639,65.7193808 C10.6732983,65.8126317 10.7124932,65.9037543 10.7574176,65.9922111 C10.794492,66.081803 10.8403424,66.1676886 10.8943301,66.2486717 C11.0285265,66.4388507 11.1904297,66.608888 11.3749213,66.7534079 C11.447635,66.8129812 11.5374078,66.8491877 11.6319816,66.8570834 C11.7776284,66.9589363 11.9307924,67.0501286 12.0902197,67.1299138 C12.1684554,67.16811 12.2466912,67.203578 12.3221328,67.2363176 L12.4981633,67.3099818 L13.0011075,67.5036914 C15.178637,68.2351781 17.4354266,68.7185644 19.7265891,68.9442358 C22.1016889,69.2029321 24.4988852,69.2029321 26.8739849,68.9442358 L27.2595755,68.8951263 L27.6423719,68.8241904 L28.4051706,68.6850469 L29.1595869,68.5568167 C29.411059,68.5186204 29.6541487,68.4531411 29.8972384,68.40676 C30.6209192,68.2648882 31.4507771,68.1502994 32.2610761,67.9511332 L33.4653481,67.6783029 L34.5690312,67.3645479 C34.4935895,67.3045252 34.6416787,67.1899365 34.8931508,67.0453364 C35.0188868,66.9744005 35.1725642,66.898008 35.334624,66.8161589 L35.8291858,66.5433285 C36.4941898,66.1722792 37.0893404,65.8257846 36.706544,65.7957733 C37.1821732,65.6215887 37.6484598,65.4239881 38.1036112,65.2037313 C38.3803133,65.1012191 38.6401347,64.9596619 38.8747923,64.7835726 C38.9841447,64.4858904 39.1779627,64.2247232 39.4336192,64.0305607 C39.6818637,63.8103027 39.9430962,63.6044185 40.2159768,63.4139641 C40.386419,63.2993753 40.5624495,63.1575035 40.7748037,63.0047185 C40.987158,62.8519335 41.1939239,62.6909636 41.4398077,62.5163522 C41.632603,62.3853936 41.861722,62.2435218 42.0936352,62.1043783 L42.7642274,61.6514799 C43.0836259,61.4531106 43.3905966,61.2362786 43.6834977,61.0021436 C44.0523234,60.6310943 42.5658439,61.5478043 42.9514345,61.1849399 L41.8924575,61.9215819 L40.7943627,62.5763748 L40.2355358,62.9092279 L39.6767089,63.206613 L38.5394962,63.7986549 C36.9988572,64.5348722 35.4012682,65.1515539 33.7615263,65.6429883 C30.446829,66.6495217 26.9816878,67.1015162 23.5126412,66.9798571 C23.0147873,66.9919341 22.5166325,66.9764489 22.0205734,66.9334759 C21.6824832,66.9061929 21.2996868,66.9061929 20.8861549,66.8488985 L19.5505586,66.6742871 L19.1873211,66.6279059 L18.8184954,66.55697 L18.0556967,66.404185 L17.2593684,66.2432151 C16.9799549,66.1777358 16.7228946,66.098615 16.4490694,66.0249508 C15.8902425,65.8694375 15.3314156,65.7521204 14.7725887,65.5283995 L13.9343484,65.2310144 C13.677288,65.1437087 13.2553737,64.9909237 13.3280212,65.0154784 C13.2883185,65.0031677 13.2555945,64.9753773 13.2376029,64.9386917 C13.2196112,64.9020061 13.2179528,64.8596897 13.2330207,64.8217688 C13.2409578,64.8024286 13.251279,64.7841048 13.2637561,64.7672027 L13.2833151,64.742648 L13.3364036,64.6908102 C13.4842508,64.5549854 13.6495595,64.4385106 13.8281713,64.3443157 L13.8952305,64.3088477 L13.9902311,64.2651949 L14.1774381,64.1806174 C14.30038,64.1205948 14.4289102,64.0660287 14.5574404,64.0196475 C14.8089125,63.9132437 15.068767,63.825938 15.3258273,63.7468171 C15.8321551,63.583802 16.3470028,63.4471939 16.8681896,63.3375716 C18.4915147,63.0232195 20.1397194,62.8470375 21.7942486,62.811009 L22.1826332,62.7891825 C24.5380886,62.7318881 27.4048705,62.6527673 29.3970883,62.4808842 C30.3107703,62.3853936 31.2412171,62.2735331 32.1660756,62.1616727 C31.7329847,62.1207481 31.3278352,62.0770952 30.9841567,62.0361707 C31.7360973,62.0423017 32.4878424,62.0095161 33.236229,61.9379518 C35.2452117,61.7551554 34.1052049,61.6241968 33.3256413,61.4304873 C32.7668145,61.3513665 33.5184366,61.1876682 32.6438725,61.114004 L34.2197644,61.086721 C34.2896177,60.996687 32.2778409,61.1794833 32.7137259,61.02397 C33.3200531,61.0430681 33.9990277,60.9721322 34.6305021,60.961219 C34.4097655,60.8466303 32.445489,60.961219 32.5404896,60.8466303 C32.881374,60.8111623 34.3147649,60.9666756 34.4349127,60.8138906 C34.1283159,60.7872796 33.8201301,60.7827201 33.5128484,60.8002491 C35.4547718,60.7074868 36.5221311,60.5274187 34.7478558,60.4210149 C35.3625653,60.4210149 36.2343353,60.4537545 36.8853686,60.4210149 L36.8853686,60.4210149 C36.561249,60.4210149 35.999628,60.4073734 35.6978615,60.4210149 L36.8155152,60.4019167 L36.6199258,60.3446224 C36.3405124,60.3446224 36.061099,60.3255242 35.7816855,60.3309808 L36.519337,60.3309808 C36.3349241,60.287328 36.1225699,60.2464034 35.8906568,60.2082072 C35.0132985,60.134543 34.1722641,60.0144976 33.7000554,60.0226825 C29.8637088,60.0172259 26.0217739,60.0526939 22.1910156,60.1481845 Z" id="Shape"></path>
                                            <path d="M63.0468493,59.8317013 C63.0468493,59.7771352 62.8736129,59.7089276 63.1669971,59.703471 C64.0918556,59.7198408 64.7792126,60.0063127 65.6230412,60.1781958 L65.7096594,60.1072599 C66.3524242,60.3210053 66.9631852,60.617356 67.5258468,60.9885021 C67.6580267,61.0583499 67.7858498,61.1357876 67.9086432,61.2204079 L68.0902619,61.3377249 L68.2607041,61.4741401 C68.3774312,61.5580074 68.4884958,61.6491401 68.5932061,61.7469705 C68.7027482,61.8446154 68.8063102,61.9484705 68.903355,62.0579971 C69.3012055,62.4880274 69.626584,62.9770284 69.8673314,63.5067264 C69.8840962,63.4685302 69.9092434,63.4412471 69.9679203,63.5449227 C70.2036647,64.0859587 70.2996167,64.6752772 70.2473337,65.2610257 L70.2473337,65.4001692 L70.2305689,65.5338561 C70.2306685,65.5769277 70.2500662,65.6177998 70.2836574,65.6457166 C70.2332994,65.8947337 70.1467368,66.1354412 70.0265971,66.3605321 C69.6642153,67.1451049 69.0833005,67.8144342 68.3501164,68.2921712 C67.9400297,68.5812576 67.5085495,68.8402474 67.0592263,69.0670095 C66.8329014,69.1925114 66.5981941,69.3016436 66.3606927,69.4107757 C66.1231913,69.5199079 65.8828957,69.6208551 65.639806,69.7190741 C63.5905013,70.5293698 61.3853593,70.8952163 59.1769731,70.7912974 C58.2015077,70.7989459 57.2286534,70.6917692 56.2794557,70.4720859 C54.8128694,70.049482 53.4170262,69.4208493 52.1357543,68.6059261 C52.1357543,68.7014168 51.9569297,68.6686771 51.6886928,68.5759148 C51.5545744,68.5295336 51.4092794,68.4695109 51.2332489,68.398575 L50.7275106,68.1612126 C50.05133,67.8392728 49.4338263,67.509148 49.6098568,67.8420011 C48.8582346,67.2717856 47.7964636,66.3496189 47.6846982,66.3632604 C47.3466079,66.4150982 46.5670444,66.1831924 44.6558565,64.5352969 C43.9349698,63.8723191 42.9793758,62.7264315 42.6999624,62.5190805 C42.2640774,62.191684 43.4320256,63.547651 42.9961406,63.2229828 C44.2339422,64.5298403 45.5108616,65.8257846 46.8771933,67.0426081 C48.2578974,68.2890841 49.7641465,69.39604 51.3729556,70.3465839 C52.2010822,70.825634 53.0628979,71.2468453 53.9519417,71.6070603 C54.8574534,71.9668858 55.7920552,72.252524 56.7460761,72.4610193 C58.6723538,72.8719868 60.6548903,72.9697 62.6137584,72.7502195 C64.0894455,72.5301618 65.535464,72.1504086 66.9251079,71.6179735 L67.6879066,71.2960336 L68.4730583,70.9167994 C69.0422664,70.6286453 69.5869922,70.296555 70.1020387,69.9236968 C70.6877972,69.50138 71.2090084,68.9997979 71.6499892,68.434043 C72.1348029,67.8060137 72.4793745,67.085706 72.6614658,66.3196076 C72.8316767,65.5559015 72.8459193,64.76691 72.7033779,63.9978211 C72.5694195,63.2715515 72.322547,62.5695448 71.9713146,61.9161253 C71.3202791,60.6974071 70.3577939,59.6636175 69.1771802,58.9149912 C68.6639973,58.5988976 68.1247254,58.3251195 67.5649646,58.0965001 C67.0749008,57.904505 66.5728013,57.7432081 66.0617203,57.6135903 C65.3053867,57.4255016 64.5358268,57.2923601 63.7593536,57.215258 L63.3430275,57.1852466 C62.0479051,57.096007 60.7477302,57.1023912 59.4535924,57.2043448 C58.2751532,57.287357 57.1025122,57.4358353 55.9413654,57.6490583 C55.0248893,57.8400395 54.1056191,58.0719453 53.1975254,58.3284059 C53.6362045,58.2983946 54.0357657,58.284753 54.3962091,58.2792964 C53.6406212,58.3745331 52.8934198,58.5250125 52.1609015,58.7294665 C51.1829545,59.0022969 50.9901592,59.1332555 51.1382483,59.182365 C51.4822251,59.2231694 51.8283678,59.2441228 52.1748722,59.245116 C52.7336991,59.2260178 52.0351655,59.5179463 52.9013472,59.4388255 C52.2894317,59.5534143 51.9848711,59.6161653 51.3757498,59.7471238 C51.3226612,59.8371579 53.2422316,59.3051386 52.8510527,59.5397728 C52.2559021,59.6188936 51.6132512,59.8126031 51.006924,59.9517466 C51.3898143,59.9334772 51.7698592,59.8777222 52.1413426,59.7853201 C52.6303161,59.6898295 53.08576,59.6188936 53.0494363,59.6843729 C52.7281108,59.7689503 51.3086905,59.8780824 51.2276606,60.0554222 C51.528026,60.0206649 51.8257624,59.9668951 52.1189895,59.8944522 C51.4730304,60.0308632 50.8408906,60.2235245 50.2301546,60.4701243 C49.9730943,60.6038112 50.1575072,60.6256377 51.0181006,60.5001357 C50.4341265,60.6338226 49.5986803,60.7893359 48.9923531,60.9803171 L48.9923531,60.9803171 C49.2997079,60.9011963 49.8305934,60.7838793 50.1100069,60.7074868 C49.7607401,60.7920642 49.4142674,60.8875548 49.0677947,60.9803171 L49.2661783,60.9803171 C49.5288269,60.9257511 49.7942697,60.8684567 50.0653007,60.8029774 C49.8343189,60.8593623 49.6033372,60.919385 49.3723554,60.9830454 C49.5567682,60.9830454 49.7691225,60.9830454 49.9982415,60.9584907 C50.8364818,60.8329887 51.6747221,60.7920642 52.1106071,60.6993019 C53.9192046,60.3448313 55.7465981,60.0888847 57.5843165,59.9326485 C58.5026553,59.8544371 59.4219255,59.8016899 60.3421271,59.7744069 C61.2441126,59.7486401 62.1468568,59.767763 63.0468493,59.8317013 L63.0468493,59.8317013 Z" id="Shape"></path>
                                            <path d="M15.3677394,35.5334281 C15.3342098,35.5770809 15.4292103,35.6971263 15.2252385,35.6070923 C14.9367393,35.4562633 14.663552,35.2790384 14.4093513,35.0778013 C14.1594117,34.8714478 13.8899649,34.6887405 13.6046405,34.5321406 L13.5124341,34.58125 C13.0821374,34.2538536 12.63787,33.9100873 12.1880144,33.5499512 C11.3106562,32.9660942 10.4277097,32.3604108 9.58667523,31.7547274 C9.58667523,31.7956519 9.58667523,31.8283916 9.48888052,31.7738255 C9.04833337,31.4474983 8.62494828,31.0996511 8.22034349,30.7316135 C8.147696,30.6770474 8.07225437,30.6224813 8.00519514,30.5679152 C7.96719106,30.5502411 7.92305144,30.5502411 7.88504736,30.5679152 C7.68107555,30.3823906 7.49666268,30.215964 7.32622048,30.0549941 C6.14481379,29.1218046 5.0870123,28.0485999 4.17723097,26.8601504 C4.05996636,26.712223 3.95084104,26.5583112 3.85031724,26.3990671 C3.7497284,26.2408255 3.64075716,26.0853122 3.54296246,25.9216139 C3.35009976,25.5937287 3.1756736,25.2558278 3.02045932,24.9094132 C2.86077763,24.5541999 2.72360643,24.1897389 2.60972156,23.8180917 C2.502415,23.4409733 2.42120188,23.0572356 2.36663186,22.6694759 C2.29505711,22.3376575 2.24836432,22.0011835 2.22692514,21.6627318 C2.21791944,21.4946013 2.21791944,21.3261261 2.22692514,21.1579956 C2.21736231,20.9888612 2.22016355,20.8192763 2.23530754,20.6505311 C2.31478085,20.1184336 2.4553736,19.5967683 2.65442771,19.095398 C2.75265509,18.8361819 2.86457047,18.5821091 2.98972384,18.3342012 C3.10987162,18.0913822 3.221637,17.8567481 3.35016718,17.6466687 C3.17413671,17.6466687 3.32222584,17.0846381 3.52060938,16.5799019 C3.71899293,16.0751657 3.91737647,15.6031692 3.63237476,15.709573 C3.82796417,15.4367426 4.11017175,15.098433 4.31973183,14.820146 C4.52929191,14.541859 4.70811651,14.3345079 4.68855757,14.2744852 C4.63115829,14.0199743 4.67511435,13.7536724 4.81149949,13.5296583 C5.10670266,12.9473252 5.49427713,12.41419 5.95988874,11.9499704 C6.25902154,11.6651051 6.57632477,11.399018 6.90989445,11.1533057 C7.15474528,10.9888823 7.38639866,10.8064665 7.60283978,10.607645 C7.86828255,10.2884334 6.73665811,11.0523585 6.99930675,10.733147 C5.90536743,11.5752353 4.89247803,12.51312 3.97325916,13.5351149 C3.02567187,14.5732502 2.21553752,15.7236145 1.56192115,16.9591361 C0.882159152,18.2538403 0.461127259,19.6631035 0.321325459,21.1116144 C0.285609922,21.4806665 0.27161624,21.8514161 0.279413443,22.2220341 C0.279413443,22.5930834 0.332501997,22.9641327 0.360443341,23.335182 C0.388384686,23.7062313 0.483385256,24.071824 0.572797558,24.4265035 C0.66248012,24.7871663 0.770656235,25.1432037 0.896917152,25.4932703 C1.31873528,26.506889 1.85180103,27.4728906 2.48677964,28.374359 C3.53220847,29.8113322 4.75186366,31.1195117 6.1191544,32.2703768 C6.83724695,32.8897017 7.58328084,33.4844719 8.32093233,34.0274044 C9.05858382,34.5703368 9.7794705,35.0832579 10.4500628,35.5497979 C11.7996297,36.4774212 12.9647838,37.2113349 13.6577291,37.6233087 L13.9119953,37.7679088 C15.456354,38.6949635 17.1032831,39.4482296 18.8212895,40.0133028 C19.4918818,40.1933709 20.182033,40.3461559 20.8721842,40.4689295 C20.5927707,40.3188728 20.3133573,40.1797293 20.0870324,40.0487708 C20.4195344,40.1633595 20.7520364,40.2724917 21.0370381,40.3597974 C21.2524355,40.4289037 21.474222,40.477333 21.699248,40.5043975 C22.4368995,40.6462693 22.6157241,40.5944315 22.5374883,40.5043975 C22.3366072,40.3393778 22.1257343,40.1863159 21.9060139,40.0460425 C21.5427765,39.8468763 22.1071916,39.8550612 21.5315999,39.5958723 C21.9646908,39.718646 22.1798391,39.7923102 22.6213123,39.9041707 C22.6911657,39.8468763 21.2661571,39.5767742 21.6098357,39.5249364 C22.0447109,39.6634776 22.4879661,39.7755531 22.9370495,39.8605178 C22.8113135,39.7241026 21.4449817,39.4158043 21.5399823,39.3148571 C21.7774837,39.3530533 22.7079305,39.8141366 22.8336666,39.6777215 C22.6313083,39.596354 22.4230376,39.529782 22.2105746,39.4785553 C23.5601415,39.781397 24.3173519,39.7759404 23.1438155,39.3530533 C23.6204411,39.4932986 24.1045452,39.6080578 24.5939713,39.6968196 L24.5939713,39.6968196 C24.3704405,39.6504384 23.9932323,39.5467629 23.7892605,39.5058383 L24.546471,39.6586233 L24.4263232,39.5713176 C24.2419103,39.5167515 24.0547033,39.4676421 23.8674963,39.4267175 L24.3676464,39.5276647 C24.2502927,39.4567288 24.1161743,39.3830646 23.9680851,39.3094004 C23.6886717,39.2111815 23.4092583,39.0802229 23.1661686,38.9765474 C22.9692667,38.8874316 22.7678259,38.8082073 22.5626355,38.739185 C20.0411116,37.9568156 17.6253828,36.8804638 15.3677394,35.5334281 L15.3677394,35.5334281 Z" id="Shape"></path>
                                            <path d="M65.0306847,34.3602574 C64.9999492,34.3138763 64.8881839,34.3247895 64.9971551,34.2156573 C65.3575984,33.8991741 65.785101,33.8282382 66.1427502,33.5062984 L66.117603,33.413536 L67.1290797,32.8433206 C67.7083969,32.4049731 68.2746748,31.954803 68.8279134,31.4928102 C68.7915897,31.4791687 68.7664425,31.4600706 68.8279134,31.4082328 C69.04865,31.2063383 69.3867403,30.9798891 69.7415954,30.7207002 L69.8813021,30.59247 C69.8968096,30.5614811 69.8968096,30.5252399 69.8813021,30.494251 C70.0349795,30.376934 70.1774803,30.2759867 70.3060105,30.1832244 C71.1152874,29.4436964 71.8794008,28.6584127 72.5944066,27.8314266 C73.3936519,26.9234639 74.0030642,25.8714596 74.3882409,24.7348018 C74.4962986,24.2229515 74.5543047,23.7022339 74.5614773,23.1796687 C74.6186514,22.381108 74.5239171,21.5791127 74.2820638,20.8142293 C74.2150046,20.8660671 74.120004,20.8142293 74.0026504,20.6969123 C73.8852967,20.5795952 73.7511783,20.4459083 73.6254422,20.3094931 C73.3460288,20.0366627 73.0833801,19.8429532 73.0247033,20.0612175 C72.809555,19.7010814 72.4044055,19.2099867 72.3066108,19.2563679 C72.0271973,19.3927831 71.624842,19.2918358 70.7418955,18.9835375 C70.6580715,18.9535262 70.5714533,18.8962318 70.4764527,18.8525789 C70.3814522,18.8089261 70.2892457,18.7625449 70.1970393,18.7161637 C70.0701126,18.6519971 69.9332321,18.6086742 69.7918898,18.5879335 C69.7220364,18.5879335 69.7220364,18.6179448 69.7583602,18.6479561 C69.7946839,18.6779675 69.8310077,18.718892 69.8813021,18.7570883 C69.9735085,18.8334808 70.0601267,18.907145 69.9595379,18.9235148 C71.1575313,19.3859908 72.0850877,20.3416222 72.4938178,21.5345015 C72.7042381,22.1056972 72.7610002,22.7200668 72.6586717,23.3188122 C72.5287923,23.9680446 72.2550945,24.5816938 71.8567551,25.1167643 C71.5632633,25.6083788 71.2053933,26.0605394 70.7921899,26.4618181 C70.0310505,27.2072358 69.2268906,27.9095557 68.383646,28.5653403 C66.533929,30.063179 64.5053874,31.5173649 63.6503823,32.0712106 L63.4994991,32.1803427 C62.5774347,32.802396 61.4681633,33.5690494 60.7444825,34.1801894 C60.423157,34.4748462 60.1018316,34.7886011 59.777712,35.0941712 C59.9788897,35.0286919 60.1688908,34.9741258 60.3365389,34.9277446 C60.0218418,35.0973011 59.7267569,35.2994513 59.4563865,35.5306998 C58.718735,36.1445681 59.2635913,35.9945114 59.693888,35.9835982 C59.9733014,35.9235755 59.7441824,36.2346021 60.1493319,36.0927303 L59.5150634,36.4774212 C59.5346223,36.5729118 60.2778621,35.9508585 60.1800674,36.1854927 C59.9174187,36.3109946 59.6687407,36.5265306 59.4116804,36.6793156 C59.5653578,36.7284251 60.3253623,36.1718511 60.3505096,36.2946248 C60.2275676,36.4064853 59.5430047,36.6029231 59.5737402,36.7584364 C59.5737402,36.7884478 59.8531536,36.6356628 59.9705073,36.5592703 C59.2049144,37.0858329 58.8528535,37.4677954 59.6547701,37.1649537 C59.4005038,37.3150104 59.009325,37.4759803 58.7522647,37.6560484 L58.7522647,37.6560484 C58.8891772,37.5796559 59.1350611,37.4677954 59.258003,37.383218 L58.7997649,37.6560484 L58.9115303,37.6560484 C59.0363101,37.6034254 59.1576227,37.543287 59.2747678,37.4759803 L58.9702071,37.6533201 C59.0817635,37.6475426 59.1928255,37.6347843 59.3027091,37.6151238 C59.653773,37.5246549 59.9974665,37.4088378 60.3309506,37.2686292 C61.9375779,36.368289 63.5134697,35.3997412 65.0306847,34.3602574 Z" id="Shape"></path>
                                        </g>
                                    </g>
                                </g>
                            </g>
                        </g>
                    </g>
                    <text id="Volunteer" font-family="Raleway-Medium, Raleway" font-size="40" font-weight="400" letter-spacing="1.07000005" fill="#4A4A4A">
                        <tspan x="4.78499976" y="38">Volunteer</tspan>
                    </text>
                    <text id="We-are-always-lookin" font-family="Raleway-Medium, Raleway" font-size="16" font-weight="400" line-spacing="34" letter-spacing="0.225000009" fill="#6B747D">
                        <tspan x="1.01499988" y="283">We are always looking for </tspan>
                        <tspan x="39.5799999" y="317">people like you!</tspan>
                    </text>
                </g>
            </g>
        </g>
    </g>
</svg>